<svg width="34" height="34" viewBox="0 0 34 34" fill="none" xmlns="http://www.w3.org/2000/svg">
<path d="M17 0C7.61109 0 0 7.61109 0 17C0 26.3889 7.61109 34 17 34C26.3889 34 34 26.3889 34 17C34 7.61109 26.3889 0 17 0ZM21.9002 10.6926H20.1337C18.7385 10.6926 18.4673 11.3556 18.4673 12.328V14.4727H21.8046L21.3596 17.8409H18.4673V26.4444H14.9921V17.8409H12.0998V14.4727H14.9921V11.9944C14.9921 9.11313 16.7476 7.55593 19.3105 7.55593C20.1756 7.55216 21.04 7.59673 21.9002 7.68929V10.6926Z" fill="#5D6887"/>
</svg>
