<svg width="58" height="58" viewBox="0 0 58 58" fill="none" xmlns="http://www.w3.org/2000/svg">
<rect width="58" height="58" rx="22" fill="#2F3955"/>
<path d="M29 9C17.956 9 9 17.956 9 29C9 40.044 17.956 49 29 49C40.044 49 49 40.044 49 29C49 17.956 40.044 9 29 9ZM38.1318 24.5939C38.1406 24.7907 38.1449 24.9885 38.1449 25.1871C38.1449 31.2531 33.5276 38.248 25.0837 38.2484H25.084H25.0837C22.4912 38.2484 20.0788 37.4885 18.0472 36.1863C18.4064 36.2287 18.772 36.2498 19.1422 36.2498C21.2931 36.2498 23.2725 35.5161 24.8438 34.2847C22.8342 34.2475 21.1399 32.9203 20.5552 31.0963C20.835 31.15 21.1228 31.1793 21.4179 31.1793C21.8369 31.1793 22.2428 31.1228 22.6285 31.0175C20.528 30.597 18.9457 28.7406 18.9457 26.5177C18.9457 26.4969 18.9457 26.4783 18.9463 26.4591C19.5649 26.803 20.2723 27.0099 21.0255 27.0331C19.7928 26.2107 18.9826 24.8047 18.9826 23.212C18.9826 22.371 19.21 21.583 19.6042 20.9046C21.868 23.6823 25.2512 25.5091 29.0665 25.701C28.9878 25.3647 28.9472 25.0144 28.9472 24.6543C28.9472 22.1201 31.0032 20.0641 33.5383 20.0641C34.8588 20.0641 36.0514 20.6223 36.8891 21.5146C37.9349 21.3083 38.917 20.9263 39.8041 20.4005C39.4608 21.4719 38.7333 22.371 37.7854 22.9395C38.7141 22.8284 39.5991 22.5822 40.4215 22.2166C39.8072 23.1373 39.0281 23.946 38.1318 24.5939Z" fill="#5D6887"/>
</svg>
