<svg width="57" height="57" viewBox="0 0 57 57" fill="none" xmlns="http://www.w3.org/2000/svg">
<rect width="57" height="57" rx="28.5" fill="white"/>
<g clip-path="url(#clip0_18_151)">
<path d="M53.5795 0.000247277H3.41951C1.52965 -0.00228606 -0.00301848 1.53038 -0.000485145 3.42025V53.5802C0.000908188 55.4685 1.53129 56.9989 3.41951 57.0002H53.5795C55.4677 56.9987 56.998 55.4685 56.9995 53.5802V3.42025C57.0019 1.53051 55.4693 -0.00215939 53.5795 0.000247277ZM24.5774 10.7734C34.0735 8.22091 43.4096 15.3612 43.433 25.1944C43.433 26.1596 42.3881 26.7628 41.5523 26.2802C41.1643 26.0562 40.9254 25.6423 40.9254 25.1944C40.9173 18.335 35.3588 12.7765 28.4995 12.7684C27.3942 12.7634 26.2935 12.9091 25.2276 13.2016C24.2929 13.4517 23.4379 12.5965 23.6885 11.6619C23.8049 11.2282 24.1437 10.8895 24.5774 10.7734ZM20.1432 14.2844C20.6144 14.7949 20.5837 15.5903 20.0748 16.063C17.5255 18.4153 16.0748 21.7256 16.0731 25.1944V32.0344C16.0731 32.9996 15.0283 33.6028 14.1923 33.1202C13.8044 32.8962 13.5654 32.4823 13.5654 32.0344V25.1944C13.5702 21.0246 15.3139 17.0458 18.3764 14.2162C18.8823 13.7448 19.6753 13.7755 20.1432 14.2844ZM3.30539 4.56025C3.30336 3.86687 3.86614 3.30422 4.55951 3.30637H13.6795C14.6448 3.30637 15.2482 4.35137 14.7656 5.18737C14.5415 5.57535 14.1275 5.81437 13.6795 5.81437H5.81314V13.6802C5.81314 14.6454 4.76826 15.2488 3.93226 14.7662C3.54441 14.5421 3.30539 14.1281 3.30539 13.6802V4.56025ZM13.6795 53.6944H4.55951C3.86601 53.6965 3.30323 53.1337 3.30539 52.4402V43.3202C3.30539 42.355 4.35026 41.7517 5.18613 42.2343C5.57411 42.4584 5.81314 42.8724 5.81314 43.3202V51.1864H13.6795C14.6448 51.1864 15.2482 52.2314 14.7656 53.0674C14.5415 53.4554 14.1275 53.6944 13.6795 53.6944ZM17.4524 39.6152C17.2198 39.8483 16.9043 39.9795 16.5751 39.9802C15.6098 39.9842 15.002 38.9418 15.4812 38.1037C15.5371 38.0061 15.6059 37.9163 15.6857 37.837L18.1823 35.3518C18.6048 34.9183 18.9795 34.4405 19.2995 33.9268C19.8108 33.1103 21.0143 33.1535 21.4657 34.0045C21.6718 34.393 21.6588 34.8613 21.4314 35.2379C21.0163 35.923 20.5186 36.5547 19.9495 37.1188L17.4524 39.6152ZM22.1951 44.5516C21.5097 45.2309 20.346 44.9135 20.1002 43.9803C19.988 43.5538 20.1082 43.0997 20.4167 42.7846L23.0161 40.1852C25.732 37.4809 22.1951 44.5516 22.1951 44.5516ZM28.9437 46.957C28.6159 46.9606 28.3001 46.8335 28.0664 46.6036C27.5641 46.1211 27.5536 45.3207 28.0431 44.8252C31.9303 40.8597 34.1823 42.1479 29.8332 46.5808C29.6001 46.8217 29.279 46.9575 28.9437 46.957ZM38.3832 43.2292C38.1554 43.4358 37.8585 43.5496 37.551 43.5484C36.5819 43.5451 35.9796 42.4939 36.4668 41.6561C36.534 41.5407 36.6191 41.4368 36.7188 41.3482C39.393 38.9913 40.9251 35.5989 40.9254 32.0344C40.9254 31.0692 41.9703 30.466 42.8061 30.9486C43.1941 31.1725 43.4331 31.5865 43.4331 32.0344C43.4273 36.3162 41.5892 40.3908 38.3832 43.229V43.2292ZM53.6931 52.4402C53.6953 53.1336 53.1329 53.6963 52.4395 53.6944H43.3195C42.3542 53.6944 41.7509 52.6494 42.2335 51.8134C42.4575 51.4254 42.8715 51.1864 43.3195 51.1864H51.1854V43.3202C51.1854 42.355 52.2303 41.7517 53.0661 42.2343C53.4541 42.4584 53.6931 42.8724 53.6931 43.3202V52.4402ZM53.6931 13.6802C53.6931 14.6454 52.6483 15.2488 51.8123 14.7662C51.4244 14.5421 51.1854 14.1281 51.1854 13.6802V5.81437H43.3195C42.3542 5.81437 41.7509 4.76937 42.2335 3.93337C42.4575 3.54539 42.8715 3.30637 43.3195 3.30637H52.4395C53.1328 3.30447 53.6952 3.867 53.6931 4.56025V13.6802Z" fill="black" stroke="black"/>
<path fill-rule="evenodd" clip-rule="evenodd" d="M24.0181 18.6335C23.9094 18.7028 23.8069 18.7595 23.7901 18.7595C23.7735 18.7595 23.755 18.7709 23.7493 18.7848C23.7434 18.7988 23.6741 18.8463 23.5955 18.8903C23.2763 19.0689 23.1973 19.1156 23.1821 19.1348C23.1733 19.1458 23.1481 19.1585 23.1258 19.1631C23.1037 19.1675 23.0144 19.221 22.9274 19.2817C22.8405 19.3425 22.749 19.3922 22.724 19.3922C22.699 19.3922 22.6738 19.4034 22.6681 19.4171C22.6579 19.4406 22.3573 19.6261 22.3235 19.6295C22.3147 19.6302 22.225 19.6841 22.1241 19.7489C22.0234 19.8138 21.9301 19.8667 21.9171 19.8667C21.9041 19.8667 21.819 19.9165 21.7282 19.9774C21.6372 20.0383 21.5481 20.0883 21.5298 20.0883C21.5116 20.0883 21.4968 20.1008 21.4968 20.1162C21.4968 20.1315 21.4718 20.1524 21.441 20.1627C21.4105 20.1729 21.364 20.1953 21.3378 20.2126C21.2613 20.2629 20.8299 20.511 20.6223 20.6241C20.5174 20.6813 20.3993 20.7574 20.36 20.7933C20.3205 20.8291 20.2884 20.8479 20.2884 20.835C20.2884 20.8221 20.2489 20.839 20.2009 20.8724C20.1528 20.906 20.0276 20.9802 19.9227 21.0376C19.8177 21.0949 19.6977 21.168 19.6561 21.2002C19.6144 21.2325 19.5628 21.2587 19.5417 21.2587C19.3942 21.2587 19.398 21.1812 19.3986 24.2351L19.3993 27.0956L19.576 27.1985C19.6733 27.2551 19.766 27.3014 19.7821 27.3014C19.7983 27.3014 19.8114 27.3139 19.8114 27.3293C19.8114 27.3447 19.8364 27.3659 19.867 27.3764C19.9284 27.3976 20.1083 27.4988 20.3043 27.6224C20.3743 27.6664 20.4958 27.7386 20.5746 27.7824C20.6532 27.8264 20.8368 27.9354 20.9824 28.0248C21.1279 28.114 21.2604 28.1871 21.2766 28.1871C21.2928 28.1871 21.306 28.2004 21.306 28.2167C21.306 28.2328 21.3382 28.2562 21.3775 28.2683C21.4168 28.2805 21.5206 28.3357 21.608 28.3912C21.7707 28.494 21.8652 28.5502 22.5303 28.9382C23.0063 29.2159 23.1523 29.2994 23.3729 29.4205C23.5656 29.5261 23.6667 29.5866 23.6909 29.6109C23.6997 29.6197 23.7463 29.647 23.7943 29.6715L23.8817 29.7165L23.8834 30.5257C23.8853 31.444 23.9081 31.5668 24.0958 31.676C24.1897 31.7305 24.2038 31.7312 24.2694 31.6855C24.3089 31.6579 24.3641 31.6355 24.3921 31.6355C24.4202 31.6355 24.4778 31.5989 24.5201 31.5539L24.5972 31.4723L24.6066 30.5891L24.6159 29.7057L25.2425 29.3368C25.5873 29.1341 26.1411 28.8082 26.4733 28.6127C26.8057 28.4172 27.1276 28.2289 27.1888 28.1943C27.2501 28.1596 27.6294 27.9375 28.0316 27.7006C28.4338 27.4635 28.7823 27.2697 28.806 27.2697C28.8299 27.2697 29.0518 27.3891 29.299 27.5351C29.7892 27.8244 29.8128 27.8382 30.2475 28.0893C30.4104 28.1835 30.6796 28.3418 30.8458 28.4411C31.1875 28.6451 31.8021 29.0075 31.9631 29.0996C32.0219 29.1333 32.1917 29.233 32.3403 29.3211C32.489 29.409 32.6929 29.5278 32.7935 29.5849L32.9765 29.6888V32.1579V34.6271L32.4953 34.9109C32.2306 35.0669 31.9622 35.2235 31.899 35.259C31.7954 35.3169 31.2942 35.6109 30.3328 36.1785C30.1467 36.2882 29.9451 36.4057 29.8844 36.4395C29.8237 36.4735 29.6682 36.564 29.5389 36.6409C28.7194 37.127 28.8419 37.1025 28.4362 36.8617C28.2662 36.7605 27.9482 36.5726 27.7295 36.4442C27.5109 36.3157 27.1961 36.1305 27.0299 36.0327C26.8637 35.9348 26.5561 35.7541 26.3463 35.6312C26.1364 35.5084 25.6641 35.2305 25.2969 35.0139L24.6291 34.6203L24.613 33.7843C24.5942 32.7893 24.6239 32.8802 24.2629 32.7109C24.1548 32.6602 23.9825 32.801 23.918 32.9928C23.8508 33.1919 23.8708 34.7881 23.9424 34.9447C24.0014 35.0741 24.1219 35.1753 24.3746 35.307C24.4097 35.3253 24.49 35.3716 24.5535 35.4099C24.659 35.4735 25.0879 35.7233 25.44 35.926C25.5186 35.9714 25.6661 36.0566 25.7676 36.1157C25.8691 36.1747 25.9606 36.2229 25.9713 36.2229C25.9818 36.2229 26.0347 36.2563 26.0889 36.2973C26.1429 36.3383 26.218 36.3816 26.2558 36.3936C26.2936 36.4053 26.3419 36.4359 26.363 36.4613C26.3844 36.4868 26.4273 36.5076 26.4588 36.5076C26.4901 36.5076 26.5206 36.5202 26.5264 36.5355C26.5376 36.5652 27.0068 36.8556 27.0432 36.8556C27.0549 36.8556 27.0816 36.8704 27.1028 36.8886C27.1239 36.9066 27.2556 36.9879 27.3956 37.0689C27.5355 37.15 27.6572 37.2259 27.6658 37.2375C27.6746 37.2491 27.7534 37.2963 27.8408 37.3427C27.9282 37.3888 28.0499 37.4571 28.1111 37.4943C28.6517 37.8238 28.8247 37.8703 29.055 37.7477C29.2401 37.6494 29.5848 37.4491 30.0283 37.1824C30.2696 37.0374 30.4806 36.9188 30.4974 36.9188C30.514 36.9188 30.5278 36.9063 30.5278 36.8909C30.5278 36.8755 30.5529 36.8546 30.5835 36.8444C30.6525 36.8212 30.784 36.7442 30.9826 36.6103C31.0666 36.5538 31.1559 36.5076 31.1812 36.5076C31.2066 36.5076 31.2274 36.4957 31.2274 36.4813C31.2274 36.4668 31.3014 36.4207 31.3921 36.3786C31.4825 36.3364 31.572 36.2867 31.5907 36.2681C31.6096 36.2497 31.6991 36.1927 31.7899 36.1417C31.8805 36.0906 32.1221 35.9528 32.3266 35.8353C32.5311 35.7178 32.7109 35.6217 32.7261 35.6217C32.7414 35.6217 32.7538 35.6075 32.7538 35.5901C32.7538 35.5728 32.7725 35.5585 32.7956 35.5585C32.8185 35.5585 32.8656 35.5335 32.9003 35.5031C32.9351 35.4727 33.0451 35.4055 33.1449 35.3539C33.2445 35.3023 33.3262 35.2489 33.3262 35.2353C33.3262 35.2216 33.3428 35.2104 33.363 35.2104C33.4286 35.2104 33.6063 35.0553 33.6576 34.9528C33.7021 34.8642 33.7078 34.5595 33.7078 32.2792C33.7078 29.7267 33.7084 29.7057 33.7713 29.7057C33.8064 29.7057 33.835 29.6908 33.835 29.6724C33.835 29.6542 33.8814 29.6176 33.9383 29.5912C33.9951 29.5648 34.0938 29.512 34.1575 29.4743C34.221 29.4363 34.3571 29.3568 34.4595 29.2975C35.209 28.8646 35.2654 28.8179 35.282 28.6153C35.3004 28.3913 35.01 28.1918 34.7886 28.2765C34.7451 28.2932 34.4036 28.4863 34.0298 28.7057C33.2344 29.1726 33.3518 29.148 32.9763 28.927C32.8101 28.8294 32.5025 28.6493 32.2926 28.5269C32.0828 28.4044 31.7752 28.2235 31.609 28.1248C31.4428 28.0261 31.1709 27.8659 31.0048 27.7691C29.8155 27.0755 29.1742 26.6908 29.1536 26.6587C29.0954 26.5676 29.1252 21.8094 29.1844 21.7579C29.2387 21.7105 29.3183 21.6624 30.0985 21.205C30.7939 20.7974 31.7101 20.2599 32.5111 19.7895C32.9461 19.534 33.3212 19.3324 33.3447 19.3413C33.3848 19.3567 34.0464 19.7441 36.4984 21.1877L37.4922 21.7729L37.4842 24.2265L37.476 26.6801L36.9456 26.9967C36.329 27.3648 36.3135 27.3832 36.3559 27.7044C36.3953 28.0016 36.9122 27.9775 37.2278 27.6636C37.2532 27.6383 37.3085 27.6091 37.3511 27.5985C37.3936 27.5878 37.4283 27.5666 37.4283 27.551C37.4283 27.5354 37.4417 27.5227 37.4579 27.5227C37.5062 27.5227 38.0084 27.219 38.111 27.1277L38.2054 27.0438L38.2045 24.2299L38.2035 21.4159L38.0707 21.2927C37.9977 21.2249 37.8948 21.1505 37.8422 21.1273C37.7895 21.1042 37.7464 21.0744 37.7464 21.0613C37.7464 21.048 37.7346 21.0374 37.7201 21.0374C37.6809 21.0374 37.0007 20.649 36.9883 20.6196C36.9826 20.6057 36.9641 20.5943 36.9471 20.5943C36.9303 20.5943 36.8378 20.5444 36.7418 20.4833C36.6457 20.4222 36.5505 20.3686 36.5299 20.3646C36.5094 20.3605 36.4644 20.3322 36.4299 20.3018C36.3952 20.2713 36.3499 20.2464 36.3291 20.2464C36.3083 20.2464 36.2734 20.2251 36.2517 20.1989C36.2299 20.1729 36.1853 20.1515 36.1525 20.1515C36.1196 20.1515 36.0927 20.1389 36.0927 20.1238C36.0927 20.1084 36.0498 20.0782 35.9973 20.0566C35.9449 20.0349 35.9019 20.0065 35.9019 19.9932C35.9019 19.9799 35.877 19.9611 35.8462 19.9516C35.7909 19.9341 35.5665 19.8102 35.5049 19.7629C35.4232 19.7003 35.0432 19.4871 35.0132 19.4871C34.9949 19.4871 34.9798 19.4738 34.9798 19.4577C34.9798 19.4414 34.9476 19.4182 34.9083 19.4062C34.8688 19.3943 34.8169 19.3685 34.7928 19.3487C34.7455 19.3104 34.4423 19.1342 34.312 19.0693C34.2683 19.0475 34.2252 19.0211 34.2166 19.0109C34.2079 19.0004 34.1506 18.9645 34.0894 18.9311C34.0281 18.8975 33.9709 18.863 33.9621 18.8541C33.9533 18.8453 33.8675 18.7965 33.7713 18.7459C33.6752 18.6952 33.5891 18.6428 33.5799 18.6295C33.4935 18.5029 33.1169 18.5249 32.9765 18.6646C32.9375 18.7033 32.7553 18.8157 32.5949 18.9C32.4985 18.9505 32.3627 19.0283 32.2926 19.0727C32.0849 19.2048 32.1039 19.1936 31.7202 19.4072C31.6329 19.4558 31.547 19.5065 31.5294 19.5196C31.5121 19.5329 31.4476 19.5718 31.3864 19.6063C31.3251 19.6407 31.1177 19.7648 30.9254 19.8821C30.7329 19.9994 30.4825 20.1458 30.3688 20.2073C30.2551 20.269 30.1336 20.335 30.0985 20.354C30.0636 20.3732 30.0277 20.3965 30.0191 20.4062C30.0103 20.4157 29.9172 20.4711 29.8123 20.529C29.7073 20.5871 29.6144 20.6441 29.6056 20.6558C29.5969 20.6676 29.5432 20.6959 29.4864 20.7187C29.4295 20.7416 29.383 20.7707 29.383 20.7832C29.383 20.7959 29.3294 20.8293 29.2637 20.8574C29.1983 20.8855 29.1164 20.9269 29.0821 20.9493C29.0477 20.9715 28.9684 21.0203 28.9056 21.0575L28.7915 21.1251L28.6568 21.0338C28.5828 20.9835 28.5152 20.9425 28.5066 20.9425C28.4981 20.9425 28.4021 20.8887 28.2931 20.8232C28.0083 20.6518 27.9846 20.6384 27.8089 20.5446C27.7215 20.4979 27.6427 20.4497 27.6341 20.4375C27.6254 20.4254 27.5752 20.3935 27.5227 20.3669C27.3182 20.2627 27.1089 20.1376 27.0988 20.1135C27.093 20.0997 27.0741 20.0883 27.0568 20.0883C27.0396 20.0883 26.9631 20.0456 26.887 19.9934C26.8108 19.9413 26.7153 19.8842 26.6746 19.8666C26.6338 19.8489 26.5433 19.7994 26.4733 19.7565C26.4035 19.7136 26.2531 19.6259 26.1394 19.5617C26.0257 19.4974 25.928 19.433 25.9221 19.4186C25.9164 19.404 25.8841 19.3922 25.8506 19.3922C25.8172 19.3922 25.7897 19.3797 25.7897 19.3641C25.7897 19.3487 25.7361 19.3111 25.6704 19.2804C25.6048 19.2498 25.4938 19.1878 25.4236 19.1424C25.2112 19.0055 25.1736 18.9837 25.0702 18.9372C25.0154 18.9125 24.9609 18.8765 24.9487 18.8571C24.9366 18.8375 24.9134 18.83 24.8971 18.8398C24.8807 18.8499 24.8676 18.8427 24.8676 18.8239C24.8676 18.8051 24.8281 18.7728 24.78 18.7523C24.7319 18.7316 24.6172 18.6678 24.5251 18.6105C24.3116 18.4778 24.2587 18.4801 24.0181 18.6335ZM24.6871 19.5236C24.9 19.6481 25.1528 19.7954 25.2492 19.8508C25.3453 19.9064 25.5886 20.049 25.7897 20.1676C25.9908 20.2861 26.2198 20.4193 26.2986 20.4633C26.3772 20.5076 26.4464 20.555 26.4521 20.5691C26.4581 20.5829 26.4766 20.5943 26.4935 20.5943C26.5206 20.5943 26.8156 20.7654 27.5633 21.2147C27.6906 21.2912 27.7996 21.3536 27.8055 21.3536C27.8116 21.3536 27.965 21.4432 28.1466 21.5525L28.4767 21.7515L28.4849 24.2237C28.4929 26.674 28.4925 26.6961 28.4292 26.716C28.3941 26.727 28.3655 26.7494 28.3655 26.7657C28.3655 26.7819 28.351 26.7952 28.333 26.7952C28.3153 26.7952 28.2428 26.8314 28.172 26.8758C28.1014 26.9202 27.7975 27.0996 27.4969 27.2744C27.1963 27.4491 26.8002 27.6808 26.6164 27.7894C26.4329 27.898 26.1037 28.0912 25.8851 28.2192C25.6664 28.3469 25.3625 28.5273 25.2097 28.6199C25.0568 28.7125 24.9254 28.7883 24.9174 28.7883C24.9095 28.7883 24.7739 28.8665 24.6159 28.9623C24.4579 29.058 24.3143 29.1362 24.2965 29.1362C24.2639 29.1362 23.7795 28.8611 23.6207 28.7524C23.5732 28.7199 23.5265 28.6933 23.5165 28.6933C23.5066 28.6933 23.4095 28.6387 23.3006 28.5719C23.1918 28.505 22.9596 28.3674 22.7846 28.2661C22.3931 28.039 21.8574 27.7237 20.9249 27.1714C20.5317 26.9383 20.1919 26.7431 20.1698 26.7374C20.0982 26.7194 20.0959 26.6247 20.1047 24.172L20.1135 21.7545L20.3838 21.5913C20.5325 21.5013 20.7971 21.3449 20.9721 21.2435C21.147 21.1421 21.3401 21.0279 21.4014 20.9897C21.6748 20.8193 22.0728 20.5943 22.1014 20.5943C22.1186 20.5943 22.1327 20.5801 22.1327 20.5628C22.1327 20.5454 22.1474 20.5311 22.1653 20.5311C22.1832 20.5311 22.287 20.4766 22.3958 20.4098C22.5047 20.3432 22.7728 20.1841 22.9913 20.0566C23.4627 19.7813 24.0502 19.436 24.1838 19.3558C24.2362 19.3242 24.2839 19.298 24.2896 19.2979C24.2954 19.2975 24.4741 19.399 24.6871 19.5236ZM24.1521 20.3682C24.0996 20.3999 23.9493 20.4878 23.8182 20.5636C23.6869 20.6391 23.4761 20.7625 23.3496 20.8377C23.2231 20.9127 23.1128 20.974 23.1046 20.974C23.0962 20.974 23.0138 21.0188 22.9212 21.0732C22.7743 21.1598 21.6334 21.8151 21.0598 22.1421L20.8614 22.2552L20.861 24.2222L20.8608 26.1891L21.4094 26.5038C21.711 26.6769 22.1796 26.944 22.4507 27.0973C22.7219 27.2505 23.0332 27.4303 23.143 27.4967C23.2525 27.5634 23.3471 27.6176 23.353 27.6176C23.3589 27.6176 23.4912 27.6913 23.6467 27.7813C24.352 28.1894 24.2624 28.1708 24.5978 27.9783C24.7374 27.8982 24.9447 27.779 25.0584 27.7135C25.4606 27.4815 26.1253 27.1021 26.2509 27.0324C26.4378 26.9288 26.7664 26.7428 27.2684 26.4558L27.7135 26.2012L27.7213 24.2282L27.7291 22.2552L27.3874 22.0611C27.1995 21.954 26.7166 21.6778 26.3144 21.4472C25.9122 21.2164 25.5401 21.0034 25.4877 20.974C25.4352 20.9445 25.2492 20.8377 25.0742 20.7365C24.8992 20.6351 24.7132 20.5309 24.6607 20.5047C24.6083 20.4785 24.5156 20.4241 24.4547 20.3834C24.3221 20.295 24.2772 20.2927 24.1521 20.3682ZM33.0558 20.4134C32.9509 20.4713 32.4233 20.772 31.8836 21.0816C31.3436 21.391 30.7067 21.7554 30.4684 21.8914C30.2299 22.0275 29.9956 22.1765 29.9475 22.2226L29.86 22.3067V24.2146C29.86 26.3857 29.8369 26.208 30.1414 26.3694C30.2227 26.4125 30.3322 26.473 30.3847 26.504C30.4371 26.5349 30.5875 26.6211 30.7186 26.6953C30.8498 26.7697 31.0072 26.8597 31.0685 26.8954C32.2316 27.5734 33.2384 28.1237 33.3145 28.1233C33.4065 28.1227 33.4842 28.0819 34.5187 27.4916C34.8335 27.3118 35.134 27.1406 35.1865 27.111C35.2389 27.0814 35.425 26.9745 35.5999 26.8737C35.7747 26.7728 36.0821 26.596 36.2828 26.4808C36.5274 26.3407 36.6718 26.2359 36.7208 26.1638L36.7937 26.056L36.7851 24.1975C36.775 22.0246 36.8275 22.2731 36.3154 21.98C36.1317 21.8748 35.5522 21.5434 35.0275 21.2433C34.5028 20.9434 33.932 20.6165 33.7589 20.5169C33.3598 20.2872 33.3002 20.2783 33.0558 20.4134ZM24.3658 21.1401C24.3898 21.1619 24.4587 21.2059 24.5192 21.2382C24.5797 21.2705 24.7113 21.3407 24.8119 21.3946C24.9124 21.4483 24.9946 21.5037 24.9946 21.518C24.9946 21.532 25.0233 21.5434 25.0584 21.5434C25.0933 21.5434 25.1219 21.5561 25.1219 21.5717C25.1219 21.5873 25.1755 21.623 25.2412 21.6514C25.3068 21.6797 25.4176 21.7384 25.4877 21.782C25.5575 21.8255 25.6363 21.8701 25.6624 21.8811C25.6888 21.8921 25.7317 21.9183 25.7578 21.9394C25.7842 21.9603 25.8914 22.0242 25.9963 22.0816C26.282 22.2372 26.3102 22.253 26.3621 22.2862C26.3882 22.3031 26.4273 22.3194 26.4489 22.3226C26.4705 22.326 26.5101 22.3507 26.5372 22.3777C26.5643 22.4044 26.6861 22.4806 26.808 22.5466L27.0295 22.6666L27.0297 24.233L27.0299 25.7996L26.9106 25.8554C26.7694 25.9216 26.4523 26.1006 26.3901 26.1492C26.3659 26.168 26.2997 26.2018 26.2428 26.2242C26.186 26.2466 26.1394 26.2775 26.1394 26.2929C26.1394 26.3081 26.1181 26.3206 26.0917 26.3206C26.0656 26.3206 26.044 26.332 26.044 26.3458C26.044 26.3597 25.9942 26.3891 25.9332 26.4111C25.8721 26.433 25.8042 26.4681 25.7821 26.4892C25.7473 26.522 25.668 26.5664 25.2711 26.7741C25.2322 26.7944 25.1578 26.8399 25.1055 26.8754C25.0534 26.9109 24.9319 26.9808 24.8357 27.0303C24.7395 27.0801 24.6382 27.1401 24.6106 27.1636C24.5829 27.1871 24.5472 27.2067 24.5312 27.2071C24.515 27.2074 24.4661 27.2357 24.4223 27.2697C24.3139 27.3542 24.2975 27.3511 24.0506 27.2036C23.9315 27.1325 23.8125 27.0613 23.7863 27.0457C23.7602 27.03 23.6741 26.9829 23.5955 26.9411C23.5167 26.8992 23.3236 26.7906 23.1662 26.6995C23.0088 26.6084 22.8155 26.4983 22.7369 26.455C22.6581 26.4115 22.5803 26.3635 22.5637 26.3483C22.5471 26.3331 22.5076 26.3206 22.4761 26.3206C22.4446 26.3206 22.4189 26.3073 22.4189 26.2912C22.4189 26.2749 22.3905 26.2526 22.3555 26.2416C22.3206 26.2306 22.2741 26.2046 22.2521 26.1841C22.2302 26.1634 22.1336 26.105 22.0373 26.0541C21.9411 26.0034 21.8553 25.9535 21.8465 25.9434C21.8377 25.9334 21.7734 25.8939 21.7034 25.8557L21.5763 25.7863L21.5679 24.2223L21.5597 22.6586L21.6555 22.6193C21.7082 22.5975 21.7511 22.5648 21.7511 22.5468C21.7511 22.5286 21.7606 22.5233 21.7725 22.5348C21.7841 22.5464 21.8163 22.5366 21.844 22.5128C21.8717 22.4893 21.973 22.4276 22.0691 22.3758C22.2369 22.2858 22.4309 22.1732 22.5633 22.0892C22.5977 22.0673 22.6612 22.0345 22.7045 22.0161C22.7478 21.9975 22.7907 21.9715 22.7999 21.9582C22.8091 21.9449 22.8594 21.9124 22.9119 21.886C23.0892 21.7966 23.3885 21.6298 23.4366 21.5933C23.4627 21.5736 23.5486 21.5231 23.6274 21.4814C23.706 21.4394 23.885 21.3373 24.0248 21.2543C24.3112 21.0844 24.3064 21.086 24.3658 21.1401ZM33.4216 21.1615C33.4304 21.1716 33.5162 21.2213 33.6124 21.272C33.7085 21.3229 33.7944 21.3728 33.8032 21.3828C33.812 21.3929 33.8549 21.4214 33.8986 21.446C34.1674 21.5983 34.37 21.7091 34.4391 21.7418C34.483 21.7625 34.5257 21.7889 34.5345 21.8002C34.5486 21.8185 34.7167 21.9139 35.0275 22.0806C35.08 22.1087 35.1844 22.1708 35.2595 22.2186C35.3347 22.2664 35.4278 22.3192 35.4662 22.3361C35.5047 22.3528 35.6077 22.409 35.6953 22.461C35.7827 22.513 35.901 22.5796 35.9579 22.6093L36.0616 22.6628L36.0533 24.2244L36.045 25.7863L35.9178 25.8557C35.848 25.8939 35.7835 25.933 35.7747 25.9427C35.7659 25.9522 35.7043 25.9854 35.6375 26.0163C35.5707 26.0471 35.4543 26.1141 35.3786 26.165C35.3028 26.2158 35.225 26.2574 35.2057 26.2574C35.1865 26.2574 35.1706 26.2716 35.1706 26.2889C35.1706 26.3064 35.142 26.3206 35.1069 26.3206C35.072 26.3206 35.0434 26.3328 35.0434 26.3474C35.0434 26.3622 34.9861 26.3999 34.9161 26.4313C34.8463 26.4628 34.789 26.5006 34.789 26.5152C34.789 26.53 34.7604 26.5421 34.7253 26.5421C34.6904 26.5421 34.6618 26.5564 34.6618 26.5736C34.6618 26.5911 34.6494 26.6053 34.6341 26.6053C34.6188 26.6053 34.4651 26.6858 34.2922 26.7841C34.1195 26.8825 33.8707 27.0231 33.7396 27.0966C33.6084 27.1702 33.4576 27.2555 33.4046 27.2862L33.3083 27.342L33.065 27.1951C32.9312 27.1144 32.8152 27.0482 32.807 27.0482C32.7988 27.0482 32.6941 26.989 32.5743 26.9164C32.4544 26.8439 32.2705 26.7412 32.1656 26.6885C32.0606 26.6357 31.9675 26.5846 31.9587 26.5752C31.9391 26.5537 31.8145 26.4821 31.6886 26.4201C31.6361 26.3943 31.5859 26.3645 31.5771 26.354C31.5684 26.3434 31.4898 26.2997 31.4024 26.2566C31.3148 26.2135 31.2318 26.1604 31.2179 26.1388C31.2039 26.1169 31.1753 26.0989 31.1543 26.0985C31.1334 26.0981 31.0803 26.0699 31.0366 26.0359C30.9929 26.0019 30.9321 25.9736 30.9015 25.9732C30.8708 25.9729 30.8458 25.9613 30.8458 25.9472C30.8458 25.9334 30.7813 25.8907 30.7023 25.8527L30.5591 25.7832L30.5673 24.2265L30.5755 22.6696L30.83 22.5199C30.9698 22.4375 31.1683 22.3259 31.2711 22.2718C31.3738 22.2177 31.5094 22.1383 31.5726 22.0956C31.6357 22.0529 31.7036 22.018 31.7235 22.018C31.7431 22.018 31.7935 21.9918 31.8353 21.9599C31.8769 21.9278 32.0112 21.8479 32.1337 21.782C32.2562 21.716 32.3707 21.6512 32.388 21.6378C32.4056 21.6245 32.4716 21.5848 32.5348 21.5499C32.7654 21.4219 32.8019 21.4009 32.8173 21.3851C32.8261 21.3762 32.912 21.3276 33.0081 21.2769C33.1043 21.226 33.1901 21.175 33.1989 21.1632C33.2398 21.1082 33.3739 21.1072 33.4216 21.1615ZM28.6978 28.2921C28.615 28.3241 28.4523 28.4143 27.7831 28.7991C27.7274 28.8312 27.367 29.0356 26.9822 29.2537C25.6766 29.9934 25.4783 30.1126 25.4226 30.1918C25.3833 30.2478 25.3762 30.5441 25.3762 32.1612C25.3762 34.361 25.3304 34.1068 25.7739 34.36C25.9313 34.45 26.4394 34.74 26.9028 35.0046C27.3664 35.2694 27.8887 35.5684 28.0634 35.6692C28.9073 36.1559 28.5482 36.2472 30.7346 34.9893C31.5668 34.5105 31.8271 34.361 31.9645 34.2828C32.2688 34.1096 32.2449 34.2898 32.2449 32.1513C32.2449 30.0008 32.2793 30.2089 31.8868 29.9792C31.5169 29.7628 30.4316 29.1394 30.2416 29.0341C30.163 28.9904 29.8338 28.8046 29.5102 28.621C28.8507 28.2471 28.8329 28.2399 28.6978 28.2921ZM29.0058 29.1521C29.1101 29.2129 29.2092 29.2628 29.2258 29.2628C29.2424 29.2628 29.2559 29.277 29.2559 29.2945C29.2559 29.3118 29.2704 29.326 29.2883 29.326C29.3061 29.326 29.3774 29.3617 29.4467 29.4052C29.516 29.4486 29.5944 29.4843 29.6209 29.4843C29.6474 29.4843 29.6694 29.495 29.6694 29.508C29.6694 29.521 29.7516 29.5739 29.8521 29.6254C29.9527 29.677 30.0422 29.7279 30.0508 29.7387C30.0595 29.7495 30.1956 29.8266 30.353 29.9101C30.5104 29.9934 30.6617 30.0813 30.6894 30.1052C30.717 30.1291 30.7563 30.1487 30.7768 30.1487C30.7972 30.1487 30.814 30.1593 30.814 30.1726C30.814 30.1857 30.8605 30.2166 30.9174 30.2411C30.9742 30.2658 31.0278 30.2941 31.0366 30.3043C31.0538 30.3241 31.1555 30.3837 31.307 30.4627C31.3593 30.49 31.4094 30.5205 31.4182 30.5306C31.427 30.5405 31.4592 30.5579 31.4898 30.5691C31.5718 30.5993 31.5762 33.6586 31.4943 33.7264C31.4329 33.7771 31.3499 33.8261 31.1797 33.9124C31.1097 33.9479 31.0095 34.0045 30.9571 34.0379C30.9046 34.0715 30.7758 34.1446 30.6709 34.2006C30.5659 34.2566 30.4228 34.339 30.353 34.3836C30.283 34.4282 30.215 34.4618 30.2019 34.458C30.1887 34.4542 30.178 34.462 30.178 34.4749C30.178 34.488 30.0813 34.5485 29.9634 34.6094C29.8453 34.6702 29.7415 34.7285 29.7329 34.7387C29.7102 34.7653 29.3874 34.9458 29.2571 35.0048C29.1964 35.0324 29.1384 35.0684 29.1279 35.0851C29.0336 35.2368 28.7135 35.2736 28.5881 35.147C28.5793 35.1381 28.4935 35.0899 28.3973 35.0396C28.3012 34.9893 28.2008 34.9306 28.1747 34.9094C28.1483 34.8881 28.0697 34.8446 27.9997 34.8127C27.9299 34.781 27.8654 34.7455 27.8566 34.7338C27.848 34.7222 27.7692 34.6749 27.6818 34.629C27.5943 34.5831 27.4943 34.5278 27.4596 34.5064C27.3416 34.4331 27.078 34.2765 27.0016 34.2342C26.9599 34.211 26.874 34.1636 26.8108 34.1286C26.7477 34.0935 26.5565 33.9866 26.3859 33.891L26.0759 33.7169L26.0765 32.1463L26.0768 30.5758L26.2377 30.4972C26.326 30.4541 26.4134 30.4006 26.4317 30.3786C26.4502 30.3565 26.4922 30.3385 26.525 30.3385C26.5578 30.3385 26.5847 30.3243 26.5847 30.3068C26.5847 30.2893 26.5968 30.2751 26.6116 30.2751C26.6265 30.2751 26.7692 30.1969 26.9288 30.1012C27.0885 30.0056 27.2336 29.9272 27.2516 29.9272C27.2695 29.9272 27.2842 29.9158 27.2842 29.9019C27.2842 29.8881 27.3342 29.8586 27.3953 29.8366C27.4563 29.8148 27.5246 29.7799 27.5473 29.7592C27.6076 29.7038 27.7646 29.6126 27.8646 29.5745C27.9127 29.5563 27.952 29.5286 27.952 29.5128C27.952 29.497 27.9671 29.4843 27.9856 29.4843C28.0039 29.4843 28.1554 29.4059 28.322 29.3103C28.4885 29.2146 28.6364 29.1362 28.6503 29.1362C28.6642 29.1362 28.6934 29.1149 28.7152 29.0887C28.7705 29.0225 28.7913 29.027 29.0058 29.1521Z" fill="white" stroke="white" stroke-width="1.50243"/>
<path fill-rule="evenodd" clip-rule="evenodd" d="M23.9137 19.5458C23.7126 19.6648 22.9469 20.1147 22.2123 20.5452C21.4778 20.9757 20.7087 21.4278 20.5032 21.5501L20.1294 21.772L20.1298 24.2282L20.1302 26.6845L20.3763 26.8242C20.5116 26.9013 20.7583 27.0452 20.9244 27.1443C21.0906 27.2433 21.3839 27.4163 21.5764 27.5284C22.1339 27.854 22.65 28.1564 23.214 28.4884C23.5025 28.6581 23.803 28.8329 23.8818 28.8767C23.9604 28.9206 24.0783 28.9899 24.1436 29.0305C24.3094 29.1341 24.1947 29.1835 25.2969 28.5339C25.5417 28.3895 25.8922 28.1837 26.076 28.0765C26.2595 27.969 26.5743 27.7841 26.7756 27.6655C26.9767 27.5469 27.2343 27.3967 27.348 27.332C27.5651 27.208 27.9696 26.9679 28.2782 26.7798L28.4609 26.6684V24.2186V21.7686L28.1509 21.5848C27.9803 21.4838 27.8265 21.3954 27.809 21.3884C27.7916 21.3811 27.6915 21.3225 27.5865 21.2578C27.4816 21.193 26.8663 20.8303 26.2191 20.4516C25.5719 20.0729 24.8791 19.6656 24.6791 19.546C24.2445 19.2863 24.3515 19.2863 23.9137 19.5458ZM24.3763 20.3054C24.3929 20.3204 24.4851 20.3755 24.5815 20.4277C24.6776 20.4799 24.885 20.5972 25.0424 20.6883C25.1998 20.7794 25.3859 20.8861 25.4559 20.9254C25.603 21.008 26.9195 21.7604 27.4116 22.043L27.7454 22.235L27.7537 24.2123L27.7619 26.1895L27.6693 26.255C27.6184 26.291 27.5701 26.3206 27.5623 26.3206C27.5543 26.3206 27.4205 26.3939 27.265 26.4833C26.7058 26.805 24.8778 27.8494 24.6087 28.0009C24.2458 28.2053 24.4008 28.2477 23.389 27.6664C23.0915 27.4956 22.7983 27.3276 22.737 27.2931C22.6296 27.2325 21.8588 26.7904 21.3095 26.4742C21.1626 26.3897 21.0361 26.3206 21.028 26.3206C21.0202 26.3206 20.9721 26.2912 20.9214 26.2551L20.829 26.1898V24.2174V22.245L21.0595 22.1118C21.1864 22.0383 21.7195 21.7331 22.2442 21.4333C22.7689 21.1336 23.3413 20.8058 23.516 20.7048C23.691 20.604 23.8984 20.486 23.9772 20.4425C24.0558 20.3992 24.1485 20.3444 24.1831 20.3208C24.2548 20.2718 24.3325 20.2656 24.3763 20.3054ZM28.16 27.6676C27.8284 27.8663 27.552 28.029 27.5455 28.029C27.539 28.029 27.3953 28.1125 27.2263 28.2146C27.0571 28.3168 26.7398 28.5043 26.5211 28.6315C26.3026 28.7587 25.9876 28.9434 25.8216 29.0421C25.2033 29.4096 24.7459 29.674 24.6961 29.693C24.6509 29.7102 24.645 29.8125 24.645 30.5906C24.645 31.5913 24.6475 31.5811 24.3735 31.6851L24.23 31.7398L24.2388 32.2164L24.2476 32.6931L24.3666 32.7211C24.4355 32.7373 24.5191 32.7887 24.5652 32.8432L24.645 32.9375L24.6458 33.7655L24.6467 34.5935L25.5124 35.0979C25.9884 35.3754 26.7144 35.8006 27.1254 36.043C27.5363 36.2854 27.9729 36.5415 28.0952 36.6119C28.2177 36.6825 28.4192 36.8017 28.5432 36.8771C28.8196 37.045 28.7716 37.0481 29.1259 36.8398C29.2886 36.744 29.4346 36.6658 29.4502 36.6658C29.4659 36.6658 29.4785 36.6515 29.4785 36.6341C29.4785 36.6168 29.4924 36.6026 29.5092 36.6026C29.5262 36.6026 29.6696 36.5242 29.8284 36.4285C29.9869 36.3328 30.122 36.2544 30.1283 36.2544C30.1346 36.2544 30.2665 36.1781 30.4214 36.0847C30.5761 35.9912 30.989 35.7467 31.3387 35.5413C31.6887 35.3359 32.151 35.0637 32.3662 34.9361C32.5814 34.8086 32.7674 34.7038 32.7796 34.7032C32.7917 34.7027 32.8338 34.6755 32.8731 34.6429L32.9447 34.5835V32.1511V29.7188L32.652 29.5462C32.4911 29.4513 32.3086 29.345 32.2465 29.3099C32.1845 29.275 32.005 29.17 31.8476 29.077C31.4969 28.8693 31.3244 28.7683 30.814 28.4719C30.5956 28.3449 30.2808 28.1602 30.1146 28.0615C29.9484 27.9628 29.6336 27.7783 29.4149 27.6515C29.1963 27.5248 28.9786 27.3942 28.9313 27.3612C28.8084 27.276 28.8225 27.2703 28.16 27.6676ZM29.4951 28.5628C29.827 28.752 30.4779 29.1246 30.9413 29.391C31.4047 29.6573 31.8735 29.9251 31.9829 29.986C32.3311 30.1808 32.3122 30.0496 32.3017 32.1948C32.2918 34.2462 32.3066 34.1188 32.058 34.2748C31.9002 34.3739 30.2705 35.3053 30.2548 35.3053C30.2483 35.3053 30.1646 35.3553 30.069 35.4162C29.9732 35.4771 29.887 35.5269 29.877 35.5269C29.8671 35.5269 29.7555 35.5889 29.629 35.6649C28.8729 36.1187 28.7946 36.1373 28.4628 35.9418C28.2383 35.8095 26.9498 35.0743 26.378 34.7522C25.4744 34.2431 25.4254 34.2116 25.3685 34.1008C25.2832 33.9347 25.2832 30.3814 25.3685 30.2127C25.4273 30.0965 25.71 29.9243 27.5388 28.8917C27.7224 28.7879 28.0301 28.6131 28.2224 28.5032C28.7069 28.226 28.7212 28.2192 28.8112 28.219C28.8553 28.2188 29.1629 28.3735 29.4951 28.5628Z" fill="white" stroke="white" stroke-width="1.50243"/>
<path fill-rule="evenodd" clip-rule="evenodd" d="M33.1672 19.4368C33.1059 19.4766 32.9485 19.5708 32.8173 19.6462C32.6862 19.7215 32.4171 19.8804 32.2197 19.999C32.022 20.1177 31.8539 20.2147 31.8461 20.2147C31.8381 20.2147 31.6706 20.3117 31.4738 20.4303C31.2771 20.5487 30.9444 20.7465 30.7345 20.8695C30.5246 20.9927 30.0881 21.2492 29.7645 21.4398L29.1763 21.7862V24.2195V26.6528L29.8282 27.0413C30.1867 27.2549 30.5124 27.4472 30.5519 27.4684C30.5914 27.4895 31.2228 27.8593 31.9547 28.29C32.6866 28.7207 33.299 29.073 33.3156 29.073C33.3452 29.073 33.4232 29.0287 34.1212 28.6155C34.685 28.2816 34.8092 28.2188 34.904 28.219C34.9862 28.219 35.0328 28.2416 35.2461 28.3845C35.2938 28.4164 35.3089 28.4164 35.3203 28.3849C35.3283 28.363 35.3623 28.3454 35.3957 28.3454C35.4293 28.3454 35.4567 28.3312 35.4567 28.3137C35.4567 28.2962 35.4854 28.282 35.5203 28.282C35.5552 28.282 35.5838 28.27 35.5838 28.2552C35.5838 28.2404 35.641 28.2026 35.7111 28.1713C35.7811 28.14 35.8383 28.1036 35.8383 28.0905C35.8383 28.0776 35.8776 28.0514 35.9257 28.0326C36.0097 27.9995 36.1228 27.9358 36.1562 27.9023C36.165 27.8936 36.2123 27.8659 36.2615 27.8407C36.3369 27.8019 36.347 27.7824 36.3266 27.7142C36.2394 27.4219 36.3121 27.3331 36.9383 26.9669L37.4601 26.6619V24.2193V21.7765L37.3248 21.7027C37.1016 21.5806 35.9561 20.9071 35.8633 20.8433C35.816 20.8109 35.7691 20.7841 35.7593 20.7841C35.7494 20.7841 35.6523 20.7296 35.5434 20.6628C35.4344 20.5962 35.1736 20.4411 34.9637 20.3183C34.7538 20.1955 34.3005 19.9297 33.9563 19.7278C33.2559 19.3168 33.3169 19.3392 33.1672 19.4368ZM33.5331 20.3612C33.6203 20.4068 33.842 20.53 34.0258 20.6347C34.2093 20.7397 34.4026 20.8498 34.4551 20.8796C34.5075 20.9092 34.6792 21.0079 34.8366 21.0988C34.9941 21.1896 35.452 21.4506 35.8542 21.6787C36.2564 21.9069 36.632 22.1392 36.6889 22.1951L36.7923 22.2964V24.1963C36.7923 25.6027 36.7824 26.1177 36.7542 26.1792C36.7118 26.2718 36.4662 26.4227 35.1864 27.1431C35.1339 27.1725 34.9479 27.2794 34.7729 27.3803C33.6802 28.0111 33.4578 28.1315 33.358 28.1451C33.2229 28.1637 33.1952 28.1499 32.0224 27.4768C31.5414 27.2008 30.9188 26.8441 30.6391 26.6843C30.3592 26.5243 30.085 26.3667 30.0297 26.3343C29.8194 26.2107 29.8282 26.302 29.8282 24.2107V22.3162L29.9156 22.2173C29.9637 22.1628 30.0675 22.0832 30.1461 22.0405C30.2249 21.9978 30.6685 21.7454 31.1319 21.4796C31.5954 21.2139 32.0247 20.9684 32.0859 20.9343C32.1472 20.9001 32.3761 20.7687 32.5948 20.6427C33.3261 20.2204 33.2868 20.2321 33.5331 20.3612Z" fill="white" stroke="white" stroke-width="1.50243"/>
<path fill-rule="evenodd" clip-rule="evenodd" d="M25.4558 19.1565C25.5497 19.2311 25.6308 19.2713 25.63 19.243C25.6294 19.2293 25.5758 19.1929 25.5108 19.1621C25.4154 19.117 25.4047 19.1158 25.4558 19.1565ZM22.8323 19.3131C22.8106 19.3392 22.7694 19.3616 22.741 19.363C22.7085 19.3647 22.7039 19.3715 22.7287 19.3814C22.7503 19.3901 22.806 19.3677 22.8522 19.3315C22.8986 19.2952 22.9218 19.2656 22.9041 19.2656C22.8863 19.2656 22.8541 19.287 22.8323 19.3131ZM24.2137 19.3465C24.1546 19.3937 24.155 19.3943 24.2236 19.3613C24.2752 19.3362 24.315 19.3362 24.3667 19.3613C24.4354 19.3943 24.4358 19.3937 24.3765 19.3465C24.3425 19.3195 24.3059 19.2973 24.2952 19.2973C24.2843 19.2973 24.2477 19.3195 24.2137 19.3465ZM23.8157 19.5708C23.5642 19.7206 23.366 19.8557 23.4843 19.7969C23.5808 19.7489 24.1361 19.4142 24.1361 19.4042C24.1361 19.3814 24.1141 19.393 23.8157 19.5708ZM24.5177 19.434C24.5177 19.4435 24.643 19.5257 24.796 19.6166C25.1347 19.8178 25.1219 19.811 25.1219 19.791C25.1219 19.7819 25.0181 19.7147 24.8914 19.6414C24.7645 19.5682 24.6287 19.4877 24.5892 19.4624C24.5499 19.4372 24.5177 19.4243 24.5177 19.434ZM31.0286 19.7899C30.9097 19.854 30.917 19.8808 31.0366 19.8193C31.0891 19.7923 31.132 19.7635 31.132 19.7551C31.132 19.7348 31.1286 19.736 31.0286 19.7899ZM23.2536 19.8994C23.1619 19.9518 23.0867 20.0029 23.0867 20.0127C23.0867 20.0317 23.3664 19.8787 23.419 19.8309C23.473 19.7819 23.4238 19.8022 23.2536 19.8994ZM25.1696 19.8275C25.1872 19.8444 25.273 19.8971 25.3604 19.9446C25.4478 19.9918 25.4907 20.007 25.4558 19.9778C25.3839 19.9182 25.1206 19.7796 25.1696 19.8275ZM22.9039 20.1061C22.8295 20.1505 22.7688 20.1942 22.7688 20.2033C22.7688 20.2204 22.9833 20.0991 23.0375 20.0515C23.092 20.0034 23.0413 20.0243 22.9039 20.1061ZM25.5441 20.0427C25.5947 20.0962 26.4422 20.5858 26.4575 20.5702C26.4663 20.5613 26.4581 20.5486 26.4394 20.5419C26.4209 20.5351 26.2354 20.4294 26.0276 20.3066C25.6048 20.0571 25.5081 20.0042 25.5441 20.0427ZM27.1571 20.1672C27.2008 20.1921 27.2508 20.2126 27.2684 20.2126C27.2859 20.2126 27.2644 20.1921 27.2207 20.1672C27.177 20.1424 27.1268 20.1221 27.1094 20.1221C27.0919 20.1221 27.1135 20.1424 27.1571 20.1672ZM22.5542 20.3106C22.4622 20.3629 22.3872 20.414 22.3872 20.4241C22.3872 20.443 22.6669 20.2901 22.7194 20.2422C22.7734 20.1932 22.7244 20.2136 22.5542 20.3106ZM24.1279 20.3531C23.9485 20.4628 23.9388 20.4918 24.1151 20.3914C24.2004 20.3428 24.296 20.3107 24.3297 20.3197C24.3633 20.3282 24.3826 20.3225 24.3728 20.3068C24.3433 20.2591 24.254 20.276 24.1279 20.3531ZM24.4383 20.3671C24.4556 20.3859 24.5344 20.436 24.6131 20.4784C24.6919 20.5207 24.8243 20.594 24.9073 20.6408C24.9903 20.6879 25.0584 20.7192 25.0584 20.7105C25.0584 20.7018 24.9903 20.6562 24.9073 20.6091C24.573 20.4197 24.4079 20.3345 24.4383 20.3671ZM23.7302 20.5763C23.6381 20.6332 23.5522 20.6908 23.5394 20.7042C23.5062 20.739 23.752 20.6101 23.8659 20.5328C24.0187 20.4294 23.9138 20.463 23.7302 20.5763ZM21.8883 20.6997C21.6706 20.8322 21.628 20.8832 21.8307 20.7692C22.0339 20.6545 22.1233 20.5938 22.0842 20.5968C22.0672 20.5981 21.9791 20.6444 21.8883 20.6997ZM26.6164 20.6835C26.8721 20.8409 27.0617 20.9455 27.0617 20.9292C27.0617 20.9094 26.5281 20.5941 26.4962 20.5951C26.4836 20.5953 26.5378 20.6351 26.6164 20.6835ZM23.2851 20.8373C23.1764 20.9013 23.0926 20.9588 23.0991 20.9652C23.1126 20.9785 23.5001 20.7564 23.5001 20.7352C23.5001 20.7118 23.491 20.7162 23.2851 20.8373ZM25.09 20.7301C25.09 20.7452 25.4646 20.974 25.4894 20.974C25.4964 20.974 25.592 21.0283 25.7017 21.0943C25.9887 21.2678 26.3302 21.454 26.3302 21.4373C26.3302 21.4254 25.9326 21.1923 25.4716 20.9343C25.4104 20.8999 25.2995 20.8365 25.2253 20.7935C25.1509 20.7502 25.09 20.7217 25.09 20.7301ZM21.5227 20.9119C21.4582 20.9457 21.3949 20.9905 21.3819 21.0114C21.3689 21.0322 21.4145 21.0159 21.4832 20.9749C21.6984 20.8468 21.724 20.8062 21.5227 20.9119ZM22.9516 21.0237C22.8327 21.0879 22.84 21.1146 22.9596 21.0531C23.0121 21.0262 23.055 20.9973 23.055 20.989C23.055 20.9687 23.0516 20.9698 22.9516 21.0237ZM21.0972 21.168C20.9093 21.2792 20.7401 21.3994 20.8448 21.3472C20.9435 21.2978 21.3378 21.0598 21.3378 21.0495C21.3378 21.0273 21.3197 21.0362 21.0972 21.168ZM27.2525 21.0493C27.2525 21.0615 27.3596 21.1266 27.729 21.3388C27.7904 21.3741 27.9802 21.4853 28.1508 21.5858L28.4609 21.7686V24.2123C28.4609 26.1249 28.4523 26.6646 28.4212 26.6959C28.3893 26.7278 28.3924 26.7314 28.4372 26.7145C28.4899 26.6946 28.4925 26.5541 28.4849 24.2224L28.4767 21.7515L28.1466 21.5525C27.965 21.4432 27.8104 21.3536 27.8032 21.3536C27.7959 21.3536 27.7135 21.305 27.62 21.2456C27.4256 21.1218 27.2525 21.0294 27.2525 21.0493ZM22.3323 21.3808C21.906 21.6249 21.653 21.7856 21.8784 21.6691C22.0535 21.5785 22.7866 21.1558 22.8148 21.1291C22.8734 21.0738 22.8117 21.1059 22.3323 21.3808ZM19.3808 21.3616C19.3724 21.3834 19.3694 22.6823 19.374 24.2484L19.3822 27.0956L19.398 24.2089C19.4068 22.621 19.4098 21.3221 19.4049 21.3221C19.4001 21.3221 19.3892 21.3398 19.3808 21.3616ZM20.4142 21.5694L20.1135 21.7536L20.1131 24.2189L20.1129 26.6845L20.1213 24.2277L20.1297 21.7708L20.4317 21.5916C20.6922 21.4369 20.7654 21.3853 20.7242 21.3853C20.7191 21.3853 20.5796 21.4681 20.4142 21.5694ZM26.3621 21.4597C26.3621 21.4679 26.6695 21.6503 27.0453 21.865L27.7284 22.2553L27.729 24.2216L27.7295 26.1879L27.6261 26.2536C27.5693 26.2899 27.5349 26.3199 27.5496 26.32C27.5645 26.3204 27.6183 26.291 27.6692 26.2549L27.7618 26.1894L27.7536 24.2123L27.7454 22.2349L27.4115 22.0427C27.2277 21.9367 26.9272 21.7653 26.7437 21.6613C26.56 21.5575 26.3991 21.4664 26.3859 21.4588C26.3728 21.4512 26.3621 21.4516 26.3621 21.4597ZM38.199 21.5434C38.199 21.6044 38.2055 21.6292 38.2135 21.5989C38.2215 21.5685 38.2215 21.5186 38.2135 21.4882C38.2055 21.4576 38.199 21.4825 38.199 21.5434ZM21.2978 21.9741L20.829 22.2465V24.2182V26.1898L20.9263 26.2585C20.9797 26.2965 21.031 26.3199 21.0404 26.3106C21.0497 26.3013 21.0133 26.2709 20.9591 26.243L20.8608 26.1925L20.8612 24.2239L20.8618 22.2553L21.3224 21.9916C21.7177 21.765 21.8167 21.7017 21.7748 21.7017C21.7704 21.7017 21.5557 21.8242 21.2978 21.9741ZM31.0958 22.368L31.0208 22.4331L31.1162 22.3775C31.2417 22.3044 31.2436 22.3027 31.2045 22.3027C31.186 22.3027 31.1372 22.3321 31.0958 22.368ZM36.0428 23.331C36.0428 23.7138 36.0473 23.8661 36.0529 23.6692C36.0584 23.4726 36.0584 23.1594 36.0529 22.9733C36.0473 22.7871 36.0428 22.9481 36.0428 23.331ZM36.043 24.8495C36.043 25.3019 36.0475 25.4826 36.0529 25.251C36.0584 25.0194 36.0584 24.6493 36.0529 24.4285C36.0475 24.2075 36.043 24.3972 36.043 24.8495ZM26.9301 25.8136L26.8549 25.8762L26.9421 25.8373C26.9902 25.8161 27.0295 25.788 27.0297 25.7749C27.0301 25.7386 27.0118 25.7457 26.9301 25.8136ZM27.3241 26.4187C27.2321 26.4721 27.1571 26.523 27.1571 26.5319C27.1571 26.5493 27.4399 26.3929 27.4893 26.3481C27.5433 26.2992 27.4943 26.32 27.3241 26.4187ZM21.2424 26.4298C21.2424 26.4385 21.2854 26.4675 21.3378 26.4947C21.3903 26.5216 21.4332 26.5366 21.4332 26.5279C21.4332 26.5192 21.3903 26.4899 21.3378 26.463C21.2854 26.436 21.2424 26.421 21.2424 26.4298ZM21.5763 26.6209C21.6473 26.6796 21.8488 26.7879 21.7988 26.7405C21.7814 26.724 21.7099 26.6784 21.6399 26.6393C21.5698 26.6002 21.5412 26.5919 21.5763 26.6209ZM26.9106 26.6549C26.7605 26.7443 26.7259 26.7912 26.8629 26.7192C26.9591 26.6689 27.0867 26.5761 27.0617 26.575C27.053 26.5746 26.985 26.6107 26.9106 26.6549ZM23.2485 26.7414C23.2557 26.7468 23.3046 26.776 23.357 26.8066L23.4524 26.8622L23.3775 26.7971C23.3361 26.7612 23.2872 26.732 23.2687 26.732C23.2502 26.732 23.241 26.7361 23.2485 26.7414ZM28.2455 26.8001C28.0575 26.9184 28.1575 26.8941 28.3628 26.7714C28.37 26.7671 28.3697 26.7572 28.362 26.7496C28.3542 26.7418 28.3017 26.7646 28.2455 26.8001ZM21.9102 26.8073C21.9102 26.82 22.3884 27.0993 22.7928 27.323C22.8758 27.3688 22.9938 27.4373 23.055 27.4755C23.2086 27.5708 23.3093 27.6226 23.3093 27.6061C23.3093 27.5899 23.238 27.5472 22.562 27.1602C21.9638 26.8174 21.9102 26.7883 21.9102 26.8073ZM26.4972 26.891C26.4054 26.9434 26.3302 26.9937 26.3302 27.0028C26.3302 27.0201 26.6101 26.8675 26.6626 26.8215C26.7183 26.7728 26.6655 26.795 26.4972 26.891ZM27.7906 27.0687C27.5408 27.2175 27.3373 27.3563 27.4592 27.2946C27.5801 27.2333 28.1111 26.9153 28.1111 26.9041C28.1111 26.8791 28.094 26.8878 27.7906 27.0687ZM20.5428 26.9315C20.5428 26.9389 20.6679 27.0203 20.821 27.1123C21.1478 27.3092 21.147 27.3088 21.147 27.2923C21.147 27.2853 21.0217 27.204 20.8687 27.1118C20.5308 26.9083 20.5428 26.9149 20.5428 26.9315ZM26.2032 27.06C25.9469 27.198 25.44 27.4988 25.44 27.5127C25.44 27.5216 25.4863 27.5019 25.5432 27.4686C25.6001 27.4354 25.7933 27.3257 25.9725 27.2249C26.1518 27.1241 26.2986 27.036 26.2986 27.029C26.2986 27.0104 26.2896 27.0133 26.2032 27.06ZM28.0316 27.7006C27.6294 27.9375 27.2501 28.1596 27.1888 28.1943C27.1276 28.2289 26.8057 28.4172 26.4733 28.6127C26.1412 28.8082 25.5873 29.1341 25.2425 29.3368L24.6159 29.7057L24.6066 30.5891L24.5972 31.4723L24.5201 31.5539C24.4778 31.5989 24.4196 31.6356 24.391 31.6356C24.3625 31.6356 24.3112 31.6576 24.2774 31.6847C24.2181 31.7318 24.2187 31.7329 24.2952 31.7122C24.643 31.6183 24.6449 31.6122 24.6449 30.5879C24.6449 29.8123 24.6508 29.7102 24.6961 29.6929C24.7459 29.674 25.2032 29.4095 25.8216 29.0421C25.9876 28.9433 26.3026 28.7587 26.521 28.6315C26.7397 28.5043 27.0617 28.316 27.2365 28.2127C27.4115 28.1097 27.5832 28.0092 27.6181 27.9897C27.6532 27.9701 27.9295 27.8073 28.2325 27.6277C28.8423 27.2661 28.8114 27.2781 28.9312 27.3612C28.9785 27.3942 29.1962 27.5248 29.4149 27.6514C29.6335 27.7782 29.9483 27.9627 30.1145 28.0614C30.2807 28.1602 30.5955 28.3448 30.814 28.4718C31.3244 28.7683 31.4968 28.8693 31.8475 29.077C32.0049 29.17 32.1845 29.275 32.2465 29.3099C32.3085 29.345 32.4911 29.4513 32.6519 29.5462L32.9446 29.7188V32.1511V34.5834L32.8731 34.6429C32.8337 34.6755 32.7916 34.7027 32.7796 34.7032C32.7674 34.7038 32.5813 34.8086 32.3661 34.9361C32.1509 35.0637 31.6886 35.3359 31.3387 35.5413C30.9889 35.7467 30.576 35.9911 30.4213 36.0847C30.2664 36.1781 30.1345 36.2544 30.1282 36.2544C30.1219 36.2544 29.9869 36.3328 29.8283 36.4285C29.6696 36.5242 29.5261 36.6026 29.5091 36.6026C29.4923 36.6026 29.4784 36.6168 29.4784 36.6341C29.4784 36.6515 29.4658 36.6658 29.4501 36.6658C29.4345 36.6658 29.2885 36.744 29.1258 36.8398C28.7715 37.0481 28.8196 37.045 28.5431 36.877C28.4191 36.8017 28.2176 36.6825 28.0951 36.6119C27.9728 36.5414 27.5363 36.2854 27.1253 36.043C26.7143 35.8006 25.9883 35.3754 25.5123 35.0979L24.6466 34.5935L24.6457 33.7655L24.6449 32.9375L24.5659 32.8441C24.4953 32.7606 24.2042 32.6414 24.2496 32.7147C24.2591 32.7301 24.2891 32.7428 24.316 32.7428C24.3833 32.7428 24.5423 32.8398 24.5724 32.8994C24.586 32.9263 24.6043 33.3246 24.6131 33.7843L24.6291 34.6203L25.2969 35.014C25.6642 35.2305 26.1364 35.5084 26.3463 35.6312C26.5561 35.7541 26.8637 35.9348 27.0299 36.0327C27.1961 36.1305 27.5109 36.3157 27.7295 36.4442C27.9482 36.5726 28.2663 36.7605 28.4363 36.8617C28.8054 37.0809 28.7957 37.0801 29.079 36.9129C29.2025 36.84 29.4095 36.7176 29.5389 36.6409C29.6682 36.564 29.8237 36.4735 29.8844 36.4395C29.9451 36.4057 30.1468 36.2882 30.3328 36.1785C31.2942 35.6109 31.7954 35.3169 31.899 35.259C31.9622 35.2235 32.2306 35.0669 32.4953 34.9109L32.9765 34.6271V32.1579V29.6888L32.7935 29.5849C32.6929 29.5278 32.489 29.409 32.3403 29.3211C32.1917 29.233 32.0219 29.1334 31.9631 29.0996C31.8021 29.0075 31.1875 28.6451 30.8458 28.4411C30.6796 28.3418 30.4104 28.1835 30.2475 28.0893C29.8129 27.8382 29.7892 27.8244 29.299 27.5351C29.0518 27.3891 28.8299 27.2697 28.806 27.2697C28.7824 27.2697 28.4338 27.4635 28.0316 27.7006ZM21.1787 27.3117C21.1787 27.3194 21.2825 27.3863 21.4094 27.4601C21.5361 27.5341 21.6864 27.6222 21.7433 27.6562C21.8001 27.69 21.8465 27.7103 21.8465 27.7012C21.8465 27.6886 21.4645 27.4573 21.2026 27.3109C21.1896 27.3037 21.1787 27.3039 21.1787 27.3117ZM27.1316 27.4559C26.8727 27.6074 26.7458 27.697 26.9026 27.6176C27.0417 27.5472 27.4115 27.3263 27.4115 27.3136C27.4115 27.2927 27.4021 27.2974 27.1316 27.4559ZM25.2173 27.6197C25.1211 27.6725 25.0282 27.7314 25.0107 27.7505C24.9773 27.7872 25.3383 27.5962 25.3906 27.5497C25.4436 27.5024 25.3967 27.5214 25.2173 27.6197ZM23.3412 27.6309C23.3412 27.6425 23.6026 27.7938 24.0977 28.0685C24.2738 28.166 24.3534 28.1679 24.47 28.0772C24.5217 28.037 24.5112 28.0377 24.4137 28.0819C24.2755 28.1446 24.2433 28.1321 23.6625 27.7925C23.3635 27.6176 23.3412 27.6063 23.3412 27.6309ZM26.5144 27.8175C26.2818 27.9576 26.1066 28.0795 26.219 28.0233C26.3213 27.972 26.8072 27.6744 26.8072 27.663C26.8072 27.6416 26.8063 27.6419 26.5144 27.8175ZM21.8784 27.7211C21.8784 27.7289 22.068 27.8458 22.2996 27.981C22.5315 28.1163 22.7711 28.2585 22.8323 28.297C22.9808 28.3906 23.1743 28.4872 23.1344 28.4475C23.117 28.4303 22.8881 28.2913 22.6257 28.1389C21.9331 27.7365 21.8784 27.7057 21.8784 27.7211ZM24.7483 27.8889C24.639 27.9506 24.5495 28.0087 24.5495 28.018C24.5495 28.0368 24.8973 27.8488 24.9454 27.8041C24.9992 27.7539 24.9508 27.7748 24.7483 27.8889ZM20.6382 27.8407C20.7485 27.9153 20.8112 27.9369 20.7336 27.8737C20.6899 27.838 20.6397 27.8088 20.6223 27.8088C20.6048 27.8086 20.6118 27.823 20.6382 27.8407ZM25.7777 28.2496C25.4699 28.4341 25.3455 28.5204 25.5035 28.4399C25.6439 28.3684 26.1078 28.0873 26.1078 28.0738C26.1078 28.0518 26.102 28.0548 25.7777 28.2496ZM28.6517 28.2611C28.608 28.2843 28.4147 28.3931 28.2224 28.5032C28.03 28.6131 27.7223 28.7879 27.5387 28.8917C25.7099 29.9243 25.4272 30.0965 25.3684 30.2127C25.2831 30.3814 25.2831 33.9346 25.3684 34.1007C25.4253 34.2116 25.4743 34.2431 26.3779 34.7522C26.9498 35.0743 28.2382 35.8095 28.4628 35.9418C28.7946 36.1373 28.8728 36.1187 29.6289 35.6648C29.7554 35.5889 29.867 35.5268 29.877 35.5268C29.8869 35.5268 29.9731 35.4771 30.0689 35.4162C30.1645 35.3553 30.2483 35.3053 30.2547 35.3053C30.2704 35.3053 31.9002 34.3739 32.058 34.2748C32.3066 34.1188 32.2917 34.2461 32.3016 32.1948C32.3121 30.0496 32.331 30.1808 31.9828 29.986C31.8735 29.9251 31.4047 29.6573 30.9412 29.3909C28.7259 28.1182 28.8276 28.1683 28.6517 28.2611ZM29.5103 28.621C29.8338 28.8046 30.163 28.9904 30.2416 29.0341C30.4316 29.1394 31.5169 29.7628 31.8868 29.9792C32.2793 30.2089 32.2449 30.0008 32.2449 32.1513C32.2449 34.2898 32.2688 34.1097 31.9645 34.2828C31.8271 34.361 31.5669 34.5106 30.7346 34.9893C28.5483 36.2472 28.9073 36.1559 28.0634 35.6692C27.8887 35.5684 27.3665 35.2695 26.9028 35.0047C26.4394 34.74 25.9313 34.45 25.7739 34.36C25.3305 34.1068 25.3762 34.361 25.3762 32.1612C25.3762 30.5441 25.3833 30.2478 25.4226 30.1918C25.4783 30.1126 25.6766 29.9934 26.9822 29.2537C27.367 29.0356 27.7274 28.8312 27.7832 28.7991C28.9283 28.1406 28.7038 28.1638 29.5103 28.621ZM23.1821 28.4813C23.1821 28.5083 23.5055 28.6985 23.5225 28.6818C23.5309 28.6732 23.49 28.6419 23.4314 28.6119C23.3731 28.5819 23.2931 28.5366 23.2536 28.5109C23.2143 28.4855 23.1821 28.4722 23.1821 28.4813ZM25.1442 28.6195C25.0078 28.699 24.9023 28.7702 24.9099 28.7778C24.9244 28.7923 25.4081 28.5083 25.4081 28.4853C25.4081 28.4654 25.4117 28.4637 25.1442 28.6195ZM23.5778 28.722C23.5898 28.7414 23.6451 28.779 23.7009 28.8059C23.7949 28.8511 23.7976 28.8509 23.7386 28.8033C23.6421 28.7254 23.5515 28.6797 23.5778 28.722ZM23.9142 28.9251C23.975 28.9657 24.0851 29.0322 24.1586 29.0726L24.2925 29.1465L24.4371 29.0701C24.5165 29.0282 24.6138 28.968 24.6529 28.9363L24.7245 28.879L24.6449 28.9177C24.6012 28.939 24.5121 28.9899 24.4469 29.0305C24.2942 29.1258 24.3007 29.1267 24.0567 28.9781C23.8325 28.8416 23.7329 28.8046 23.9142 28.9251ZM23.3439 29.4312C23.3944 29.4697 23.5955 29.5741 23.5955 29.5618C23.5955 29.5407 23.3954 29.4213 23.3597 29.4211C23.3437 29.4211 23.3364 29.4255 23.3439 29.4312ZM30.4484 29.9904C30.5009 30.0249 30.5581 30.0534 30.5755 30.0534C30.593 30.0534 30.5604 30.0251 30.5032 29.9904C30.3683 29.9084 30.324 29.9086 30.4484 29.9904ZM23.9871 32.8026C23.9487 32.851 23.9092 32.932 23.8993 32.9829L23.8813 33.075L23.9172 32.98C23.9371 32.9278 23.9899 32.846 24.0347 32.7982C24.0796 32.7504 24.1029 32.712 24.0865 32.713C24.07 32.7139 24.0252 32.7543 23.9871 32.8026ZM31.2433 33.8523C31.1908 33.8857 31.1643 33.9132 31.1841 33.9132C31.2041 33.9134 31.2541 33.8853 31.2955 33.8511C31.39 33.7727 31.3673 33.7733 31.2433 33.8523ZM27.491 34.5147C27.5124 34.5489 27.6977 34.6516 27.6977 34.6292C27.6977 34.6218 27.6467 34.5857 27.5845 34.5493C27.5221 34.5126 27.4802 34.4971 27.491 34.5147ZM29.0155 35.1303C28.9816 35.1559 28.968 35.1768 28.9856 35.1768C29.0031 35.1768 29.0451 35.1559 29.079 35.1303C29.113 35.1049 29.1266 35.084 29.109 35.084C29.0915 35.084 29.0495 35.1049 29.0155 35.1303ZM25.9805 36.2487C25.9805 36.2637 26.0164 36.2922 26.0601 36.3119C26.1038 36.3319 26.1394 36.3429 26.1394 36.3366C26.1394 36.3302 26.1038 36.3017 26.0601 36.2732C26.0164 36.2447 25.9805 36.2337 25.9805 36.2487ZM31.041 36.572C30.9998 36.6062 30.9811 36.6341 30.9994 36.6341C31.0177 36.6341 31.0424 36.6189 31.054 36.6003C31.0654 36.5817 31.1057 36.5541 31.1433 36.539C31.1828 36.5232 31.1914 36.5113 31.1639 36.5107C31.1376 36.5101 31.0824 36.5376 31.041 36.572ZM27.3002 37.0302C27.3352 37.0585 27.3924 37.0957 27.4273 37.1128L27.491 37.1437L27.4273 37.0923C27.3924 37.064 27.3352 37.0268 27.3002 37.0097L27.2365 36.9786L27.3002 37.0302Z" fill="white" stroke="white" stroke-width="1.50243"/>
</g>
<defs>
<clipPath id="clip0_18_151">
<rect width="57" height="57" fill="white"/>
</clipPath>
</defs>
</svg>
