<svg width="60" height="60" viewBox="0 0 60 60" fill="none" xmlns="http://www.w3.org/2000/svg">
<g clip-path="url(#clip0_18_49)">
<path d="M29.6752 0C13.1018 0 -0.333374 13.4352 -0.333374 30.0086C-0.333374 46.582 13.1018 60.0171 29.6752 60.0171C46.2486 60.0171 59.6838 46.582 59.6838 30.0086C59.6838 13.4352 46.2486 0 29.6752 0ZM46.3466 17.3336L43.6845 19.8857C43.4552 20.0604 43.3411 20.3478 43.3885 20.6326V39.3846C43.3411 39.6693 43.4545 39.9567 43.6845 40.1315L46.284 42.6835V43.2437H33.2089V42.6835L35.9017 40.0695C36.1664 39.8047 36.1664 39.7273 36.1664 39.3226V24.1649L28.6789 43.1817H27.6673L18.9501 24.1649V36.9105C18.8775 37.4467 19.0555 37.9855 19.4329 38.3736L22.9353 42.6222V43.1823H13.0038V42.6222L16.5061 38.3736C16.8809 37.9855 17.0483 37.4427 16.9576 36.9105V22.173C16.9989 21.7636 16.8429 21.3594 16.5375 21.084L13.4239 17.3336V16.7735H23.0907L30.5621 33.1601L37.1313 16.7735H46.3466V17.3336Z" fill="#5D6887"/>
</g>
<defs>
<clipPath id="clip0_18_49">
<rect width="60" height="60" fill="white"/>
</clipPath>
</defs>
</svg>
