<svg width="35" height="35" viewBox="0 0 35 35" fill="none" xmlns="http://www.w3.org/2000/svg">
<g clip-path="url(#clip0_28_171)">
<path d="M17.5 0.583374C7.83649 0.583374 0 8.41987 0 18.0834C0 27.7469 7.83649 35.5834 17.5 35.5834C27.1635 35.5834 35 27.7469 35 18.0834C35 8.41987 27.1635 0.583374 17.5 0.583374ZM25.4903 14.228C25.498 14.4002 25.5018 14.5733 25.5018 14.7471C25.5018 20.0548 21.4616 26.1754 14.0732 26.1757H14.0735H14.0732C11.8048 26.1757 9.69395 25.5108 7.91634 24.3714C8.23063 24.4085 8.55053 24.4269 8.87444 24.4269C10.7565 24.4269 12.4884 23.785 13.8633 22.7075C12.1049 22.6749 10.6224 21.5136 10.1108 19.9176C10.3556 19.9646 10.6075 19.9902 10.8657 19.9902C11.2323 19.9902 11.5874 19.9408 11.925 19.8487C10.087 19.4807 8.70247 17.8564 8.70247 15.9114C8.70247 15.8932 8.70247 15.8769 8.703 15.8601C9.24427 16.161 9.86324 16.3421 10.5223 16.3624C9.44374 15.6427 8.73478 14.4125 8.73478 13.0189C8.73478 12.283 8.93372 11.5935 9.27872 10.9999C11.2595 13.4304 14.2198 15.0288 17.5582 15.1968C17.4893 14.9025 17.4538 14.596 17.4538 14.2809C17.4538 12.0635 19.2528 10.2645 21.471 10.2645C22.6264 10.2645 23.67 10.7529 24.403 11.5337C25.3181 11.3532 26.1774 11.0189 26.9536 10.5588C26.6532 11.4963 26.0166 12.283 25.1872 12.7804C25.9998 12.6833 26.7742 12.4678 27.4938 12.1479C26.9563 12.9535 26.2746 13.6611 25.4903 14.228V14.228Z" fill="#5D6887"/>
</g>
<defs>
<clipPath id="clip0_28_171">
<rect width="35" height="35" fill="white"/>
</clipPath>
</defs>
</svg>
