<svg width="60" height="60" viewBox="0 0 60 60" fill="none" xmlns="http://www.w3.org/2000/svg">
<g clip-path="url(#clip0_18_55)">
<path d="M30 61C46.5725 61 60 47.5725 60 31C60 14.4275 46.5725 1 30 1C13.4275 1 0 14.4275 0 31C0 47.5725 13.4275 61 30 61ZM13.7275 30.35L42.6525 19.1975C43.995 18.7125 45.1675 19.525 44.7325 21.555L44.735 21.5525L39.81 44.755C39.445 46.4 38.4675 46.8 37.1 46.025L29.6 40.4975L25.9825 43.9825C25.5825 44.3825 25.245 44.72 24.47 44.72L25.0025 37.0875L38.9025 24.53C39.5075 23.9975 38.7675 23.6975 37.97 24.2275L20.7925 35.0425L13.3875 32.7325C11.78 32.2225 11.745 31.125 13.7275 30.35Z" fill="#5D6887"/>
</g>
<defs>
<clipPath id="clip0_18_55">
<rect width="60" height="60" fill="white"/>
</clipPath>
</defs>
</svg>
