<svg width="54" height="54" viewBox="0 0 54 54" fill="none" xmlns="http://www.w3.org/2000/svg">
<rect width="54" height="54" rx="22" fill="#EBEBEB"/>
<path d="M40.0753 32.5241C37.5513 33.1699 34.8862 32.9818 32.478 31.9878C30.0698 30.9938 28.0479 29.2473 26.7143 27.0092C25.3807 24.7711 24.8071 22.1617 25.0791 19.5706C25.3511 16.9796 26.4541 14.5461 28.2234 12.6338C27.0728 12.6424 25.9279 12.7961 24.8157 13.0914C21.2292 14.0524 18.1714 16.3988 16.3149 19.6143C14.4583 22.8299 13.9552 26.6513 14.9163 30.2378C15.8773 33.8243 18.2236 36.8822 21.4392 38.7387C24.6548 40.5952 28.4762 41.0983 32.0627 40.1373C34.094 39.5911 35.9737 38.5884 37.5588 37.2056C39.1438 35.8228 40.3924 34.0965 41.2092 32.1581C40.8377 32.2993 40.4592 32.4214 40.0753 32.5241V32.5241Z" fill="#313F62"/>
</svg>
