<svg width="83" height="83" viewBox="0 0 83 83" fill="none" xmlns="http://www.w3.org/2000/svg">
<path d="M64.8533 71.6965H51.4383H47.8259H47.0458V53.7024H52.9307C54.4232 53.7024 55.3051 52.0065 54.4232 50.7854L42.9755 34.9452C42.2462 33.9276 40.7368 33.9276 40.0076 34.9452L28.5599 50.7854C27.678 52.0065 28.5429 53.7024 30.0523 53.7024H35.9373V71.6965H35.1571H31.5447H15.9928C7.08909 71.2047 0 62.8776 0 53.8551C0 47.6309 3.37495 42.2039 8.37801 39.2699C7.92011 38.0318 7.68267 36.709 7.68267 35.3183C7.68267 28.9585 12.8214 23.8197 19.1812 23.8197C20.555 23.8197 21.8778 24.0572 23.1159 24.5151C26.7961 16.7137 34.7331 11.3036 43.9591 11.3036C55.8987 11.3205 65.7352 20.4617 66.8545 32.1129C76.0296 33.6902 83 42.1869 83 51.803C83 62.0805 74.9951 70.9842 64.8533 71.6965Z" fill="white" fill-opacity="0.2"/>
</svg>
