<svg width="10" height="12" viewBox="0 0 10 12" fill="none" xmlns="http://www.w3.org/2000/svg">
<path fill-rule="evenodd" clip-rule="evenodd" d="M0.487919 5.09341C0.723919 5.37608 1.14392 5.41475 1.42659 5.17875L4.33325 2.75675V10.6667C4.33325 11.0347 4.63192 11.3334 4.99992 11.3334C5.36792 11.3334 5.66659 11.0347 5.66659 10.6667V2.75675L8.57325 5.17875C8.85659 5.41475 9.27659 5.37608 9.51192 5.09341C9.74792 4.81075 9.70992 4.39008 9.42659 4.15475L5.42659 0.821415C5.39525 0.794748 5.35792 0.782081 5.32325 0.762081C5.29592 0.746081 5.27192 0.727415 5.24192 0.715415C5.16392 0.684748 5.08259 0.666748 4.99992 0.666748C4.91725 0.666748 4.83592 0.684748 4.75792 0.715415C4.72792 0.727415 4.70392 0.746081 4.67659 0.762081C4.64192 0.782081 4.60459 0.794748 4.57325 0.821415L0.573252 4.15475C0.290586 4.39008 0.251919 4.81075 0.487919 5.09341" fill="white"/>
</svg>
