<svg width="54" height="54" viewBox="0 0 54 54" fill="none" xmlns="http://www.w3.org/2000/svg">
<rect width="54" height="54" rx="22" fill="#2F3955"/>
<path d="M27 33C25.4087 33 23.8826 32.3679 22.7574 31.2426C21.6321 30.1174 21 28.5913 21 27C21 25.4087 21.6321 23.8826 22.7574 22.7574C23.8826 21.6321 25.4087 21 27 21C28.5913 21 30.1174 21.6321 31.2426 22.7574C32.3679 23.8826 33 25.4087 33 27C33 28.5913 32.3679 30.1174 31.2426 31.2426C30.1174 32.3679 28.5913 33 27 33ZM27 35C29.1217 35 31.1566 34.1571 32.6569 32.6569C34.1571 31.1566 35 29.1217 35 27C35 24.8783 34.1571 22.8434 32.6569 21.3431C31.1566 19.8429 29.1217 19 27 19C24.8783 19 22.8434 19.8429 21.3431 21.3431C19.8429 22.8434 19 24.8783 19 27C19 29.1217 19.8429 31.1566 21.3431 32.6569C22.8434 34.1571 24.8783 35 27 35ZM27 11C27.2652 11 27.5196 11.1054 27.7071 11.2929C27.8946 11.4804 28 11.7348 28 12V16C28 16.2652 27.8946 16.5196 27.7071 16.7071C27.5196 16.8946 27.2652 17 27 17C26.7348 17 26.4804 16.8946 26.2929 16.7071C26.1054 16.5196 26 16.2652 26 16V12C26 11.7348 26.1054 11.4804 26.2929 11.2929C26.4804 11.1054 26.7348 11 27 11V11ZM27 37C27.2652 37 27.5196 37.1054 27.7071 37.2929C27.8946 37.4804 28 37.7348 28 38V42C28 42.2652 27.8946 42.5196 27.7071 42.7071C27.5196 42.8946 27.2652 43 27 43C26.7348 43 26.4804 42.8946 26.2929 42.7071C26.1054 42.5196 26 42.2652 26 42V38C26 37.7348 26.1054 37.4804 26.2929 37.2929C26.4804 37.1054 26.7348 37 27 37ZM43 27C43 27.2652 42.8946 27.5196 42.7071 27.7071C42.5196 27.8946 42.2652 28 42 28H38C37.7348 28 37.4804 27.8946 37.2929 27.7071C37.1054 27.5196 37 27.2652 37 27C37 26.7348 37.1054 26.4804 37.2929 26.2929C37.4804 26.1054 37.7348 26 38 26H42C42.2652 26 42.5196 26.1054 42.7071 26.2929C42.8946 26.4804 43 26.7348 43 27ZM17 27C17 27.2652 16.8946 27.5196 16.7071 27.7071C16.5196 27.8946 16.2652 28 16 28H12C11.7348 28 11.4804 27.8946 11.2929 27.7071C11.1054 27.5196 11 27.2652 11 27C11 26.7348 11.1054 26.4804 11.2929 26.2929C11.4804 26.1054 11.7348 26 12 26H16C16.2652 26 16.5196 26.1054 16.7071 26.2929C16.8946 26.4804 17 26.7348 17 27ZM38.314 15.686C38.5015 15.8735 38.6068 16.1278 38.6068 16.393C38.6068 16.6582 38.5015 16.9125 38.314 17.1L35.486 19.93C35.393 20.0228 35.2827 20.0965 35.1612 20.1467C35.0398 20.1969 34.9097 20.2226 34.7783 20.2226C34.5129 20.2224 34.2585 20.1168 34.071 19.929C33.9782 19.836 33.9045 19.7257 33.8543 19.6042C33.8041 19.4828 33.7784 19.3527 33.7784 19.2213C33.7786 18.9559 33.8842 18.7015 34.072 18.514L36.9 15.686C37.0875 15.4985 37.3418 15.3932 37.607 15.3932C37.8722 15.3932 38.1265 15.4985 38.314 15.686ZM19.928 34.072C20.1155 34.2595 20.2208 34.5138 20.2208 34.779C20.2208 35.0442 20.1155 35.2985 19.928 35.486L17.1 38.314C16.9114 38.4962 16.6588 38.597 16.3966 38.5947C16.1344 38.5924 15.8836 38.4872 15.6982 38.3018C15.5128 38.1164 15.4076 37.8656 15.4053 37.6034C15.403 37.3412 15.5038 37.0886 15.686 36.9L18.514 34.072C18.7015 33.8845 18.9558 33.7792 19.221 33.7792C19.4862 33.7792 19.7405 33.8845 19.928 34.072ZM38.314 38.314C38.1265 38.5015 37.8722 38.6068 37.607 38.6068C37.3418 38.6068 37.0875 38.5015 36.9 38.314L34.072 35.486C33.8898 35.2974 33.789 35.0448 33.7913 34.7826C33.7936 34.5204 33.8988 34.2696 34.0842 34.0842C34.2696 33.8988 34.5204 33.7936 34.7826 33.7913C35.0448 33.789 35.2974 33.8898 35.486 34.072L38.314 36.9C38.5015 37.0875 38.6068 37.3418 38.6068 37.607C38.6068 37.8722 38.5015 38.1265 38.314 38.314ZM19.928 19.93C19.7405 20.1175 19.4862 20.2228 19.221 20.2228C18.9558 20.2228 18.7015 20.1175 18.514 19.93L15.686 17.1C15.5905 17.0078 15.5143 16.8974 15.4619 16.7754C15.4095 16.6534 15.3819 16.5222 15.3807 16.3894C15.3796 16.2566 15.4049 16.1249 15.4552 16.002C15.5055 15.8791 15.5797 15.7675 15.6736 15.6736C15.7675 15.5797 15.8791 15.5055 16.002 15.4552C16.1249 15.4049 16.2566 15.3796 16.3894 15.3807C16.5222 15.3819 16.6534 15.4095 16.7754 15.4619C16.8974 15.5143 17.0078 15.5905 17.1 15.686L19.928 18.514C20.0211 18.6069 20.095 18.7172 20.1454 18.8387C20.1958 18.9602 20.2218 19.0905 20.2218 19.222C20.2218 19.3535 20.1958 19.4838 20.1454 19.6053C20.095 19.7268 20.0211 19.8371 19.928 19.93Z" fill="#A5B0CE"/>
</svg>
