<svg width="60" height="60" viewBox="0 0 60 60" fill="none" xmlns="http://www.w3.org/2000/svg">
<g clip-path="url(#clip0_18_57)">
<path d="M29.6752 0C13.1018 0 -0.333374 13.4352 -0.333374 30.0086C-0.333374 46.582 13.1018 60.0171 29.6752 60.0171C46.2486 60.0171 59.6838 46.582 59.6838 30.0086C59.6838 13.4352 46.2486 0 29.6752 0ZM37.6115 41.9987C37.6115 41.9987 36.5839 40.771 35.7276 39.6867C39.4673 38.6304 40.8944 36.2897 40.8944 36.2897C39.7241 37.0606 38.6104 37.6027 37.6115 37.9742C36.1844 38.5737 34.814 38.9731 33.4723 39.2019C30.7315 39.716 28.2195 39.5733 26.0788 39.1732C24.4517 38.8591 23.0526 38.4023 21.8823 37.9455C21.2255 37.6888 20.5119 37.3747 19.7984 36.9752C19.713 36.9179 19.627 36.8899 19.5416 36.8325C19.4843 36.8038 19.4563 36.7752 19.4276 36.7472C18.9135 36.4618 18.628 36.2617 18.628 36.2617C18.628 36.2617 19.9984 38.5457 23.6235 39.63C22.7672 40.715 21.7109 41.9993 21.7109 41.9993C15.4018 41.7986 13.0038 37.6594 13.0038 37.6594C13.0038 28.4675 17.1143 21.0167 17.1143 21.0167C21.2248 17.9338 25.1359 18.0191 25.1359 18.0191L25.4213 18.3619C20.2825 19.8463 17.9132 22.1016 17.9132 22.1016C17.9132 22.1016 18.5414 21.7589 19.5977 21.2741C22.6525 19.9324 25.0786 19.5616 26.0775 19.4756C26.2489 19.4469 26.3916 19.4182 26.563 19.4182C28.3041 19.1901 30.274 19.1328 32.3293 19.3609C35.0414 19.675 37.9529 20.4739 40.9218 22.1016C40.9218 22.1016 38.6664 19.9604 33.8137 18.4759L34.2132 18.0191C34.2132 18.0191 38.1243 17.9338 42.2348 21.0167C42.2348 21.0167 46.3453 28.4675 46.3453 37.6594C46.3466 37.6594 43.9199 41.7986 37.6115 41.9987Z" fill="#5D6887"/>
<path d="M24.337 28.667C22.7099 28.667 21.4255 30.0941 21.4255 31.8359C21.4255 33.5771 22.7386 35.0048 24.337 35.0048C25.9642 35.0048 27.2485 33.5777 27.2485 31.8359C27.2772 30.0947 25.9642 28.667 24.337 28.667ZM34.7567 28.667C33.1296 28.667 31.8452 30.0941 31.8452 31.8359C31.8452 33.5771 33.1582 35.0048 34.7567 35.0048C36.3838 35.0048 37.6682 33.5777 37.6682 31.8359C37.6682 30.0947 36.3838 28.667 34.7567 28.667Z" fill="#5D6887"/>
</g>
<defs>
<clipPath id="clip0_18_57">
<rect width="60" height="60" fill="white"/>
</clipPath>
</defs>
</svg>
