<svg width="60" height="60" viewBox="0 0 60 60" fill="none" xmlns="http://www.w3.org/2000/svg">
<g clip-path="url(#clip0_18_52)">
<path d="M29.6753 0C13.1019 0 -0.333313 13.4352 -0.333313 30.0086C-0.333313 46.582 13.1019 60.0171 29.6753 60.0171C46.2487 60.0171 59.6838 46.582 59.6838 30.0086C59.6838 13.4352 46.2487 0 29.6753 0ZM38.3251 18.8747H35.2068C32.7441 18.8747 32.2653 20.0451 32.2653 21.7616V25.5473H38.1564L37.3708 31.493H32.2653V46.68H26.1309V31.493H21.0255V25.5473H26.1309V21.1727C26.1309 16.0866 29.2298 13.3378 33.7538 13.3378C35.2809 13.3311 36.8066 13.4098 38.3251 13.5732V18.8747Z" fill="#5D6887"/>
</g>
<defs>
<clipPath id="clip0_18_52">
<rect width="60" height="60" fill="white"/>
</clipPath>
</defs>
</svg>
