<svg width="58" height="58" viewBox="0 0 58 58" fill="none" xmlns="http://www.w3.org/2000/svg">
<rect width="58" height="58" rx="22" fill="#2F3955"/>
<path d="M29 49C40.0483 49 49 40.0483 49 29C49 17.9517 40.0483 9 29 9C17.9517 9 9 17.9517 9 29C9 40.0483 17.9517 49 29 49ZM18.1517 28.5667L37.435 21.1317C38.33 20.8083 39.1117 21.35 38.8217 22.7033L38.8233 22.7017L35.54 38.17C35.2967 39.2667 34.645 39.5333 33.7333 39.0167L28.7333 35.3317L26.3217 37.655C26.055 37.9217 25.83 38.1467 25.3133 38.1467L25.6683 33.0583L34.935 24.6867C35.3383 24.3317 34.845 24.1317 34.3133 24.485L22.8617 31.695L17.925 30.155C16.8533 29.815 16.83 29.0833 18.1517 28.5667Z" fill="#5D6887"/>
</svg>
