<svg width="58" height="58" viewBox="0 0 58 58" fill="none" xmlns="http://www.w3.org/2000/svg">
<rect width="58" height="58" rx="22" fill="#2F3955"/>
<path d="M41.7083 45.6667L38.305 42.6667L36.3867 40.8833L34.3583 39L35.1917 41.9317H17.245C16.3819 41.9286 15.5553 41.583 14.9468 40.9707C14.3383 40.3585 13.9978 39.5298 14 38.6667V17.2617C13.9987 16.3991 14.3396 15.5712 14.948 14.9597C15.5563 14.3483 16.3824 14.0031 17.245 14H38.4633C39.3259 14.0031 40.152 14.3483 40.7604 14.9597C41.3687 15.5712 41.7097 16.3991 41.7083 17.2617V45.6667ZM34.1667 31.5133C33.4639 32.4559 32.4521 33.1213 31.3083 33.3933C31.7783 33.9933 32.345 34.6717 32.35 34.6783C33.2919 34.6982 34.2246 34.4897 35.0684 34.0706C35.9121 33.6515 36.6418 33.0342 37.195 32.2717C37.1375 29.0629 36.3582 25.9082 34.915 23.0417C33.6444 22.0446 32.0977 21.4627 30.485 21.375H30.4667L30.245 21.6283C31.6855 22.0153 33.0289 22.7 34.1883 23.6383C32.7131 22.8273 31.0941 22.3111 29.4217 22.1183C28.3587 22.0003 27.2854 22.0109 26.225 22.15C26.15 22.1515 26.0753 22.1593 26.0017 22.1733H25.955C24.7123 22.3164 23.4997 22.6539 22.3617 23.1733C21.7917 23.435 21.4417 23.625 21.4267 23.6317C21.4117 23.6383 21.4267 23.6317 21.4267 23.62C22.6567 22.6533 24.0767 21.9533 25.5917 21.5683L25.425 21.3783H25.415C23.8023 21.4663 22.2557 22.0481 20.985 23.045C19.5365 25.9096 18.7569 29.0655 18.705 32.275C19.251 33.0422 19.9777 33.6632 20.8206 34.0829C21.6636 34.5027 22.597 34.7083 23.5383 34.6817C23.5383 34.6817 24.135 33.955 24.6 33.3667C23.485 33.0865 22.5025 32.4264 21.8217 31.5C21.8333 31.5083 21.9983 31.62 22.265 31.7667C22.2817 31.7883 22.305 31.805 22.33 31.8167C22.3511 31.8313 22.3734 31.8441 22.3967 31.855C22.7915 32.0781 23.2027 32.2709 23.6267 32.4317C24.3817 32.7317 25.1633 32.96 25.96 33.115C26.6583 33.2467 27.3667 33.315 28.0767 33.315C28.7433 33.315 29.4067 33.2533 30.0617 33.1317C30.85 32.9933 31.62 32.765 32.3567 32.4517C32.9929 32.207 33.6 31.8923 34.1667 31.5133ZM30.77 30.8017C30.4153 30.8329 30.0594 30.7562 29.749 30.5817C29.4387 30.4071 29.1883 30.1429 29.0307 29.8235C28.8731 29.5042 28.8158 29.1447 28.8661 28.7922C28.9164 28.4397 29.072 28.1106 29.3127 27.8481C29.5533 27.5856 29.8676 27.4019 30.2144 27.3212C30.5612 27.2404 30.9243 27.2664 31.2561 27.3956C31.588 27.5248 31.873 27.7513 32.0738 28.0453C32.2747 28.3394 32.382 28.6872 32.3817 29.0433C32.4183 29.9733 31.6983 30.76 30.7683 30.8017H30.77ZM24.99 30.8017C24.5501 30.7633 24.1405 30.5615 23.8422 30.236C23.5438 29.9104 23.3783 29.4849 23.3783 29.0433C23.3783 28.6018 23.5438 28.1762 23.8422 27.8507C24.1405 27.5252 24.5501 27.3233 24.99 27.285C25.41 27.285 25.8117 27.4583 26.1033 27.76C26.435 28.1033 26.615 28.565 26.6033 29.0417C26.6219 29.489 26.4623 29.9255 26.1596 30.2554C25.8568 30.5853 25.4357 30.7818 24.9883 30.8017H24.99Z" fill="#5D6887"/>
</svg>
