<svg width="58" height="58" viewBox="0 0 58 58" fill="none" xmlns="http://www.w3.org/2000/svg">
<rect width="58" height="58" rx="22" fill="#2F3955"/>
<path d="M29.0002 12.3334C33.5285 12.3334 34.0935 12.35 35.8702 12.4334C37.6452 12.5167 38.8535 12.795 39.9168 13.2084C41.0168 13.6317 41.9435 14.205 42.8702 15.13C43.7177 15.9632 44.3734 16.971 44.7918 18.0834C45.2035 19.145 45.4835 20.355 45.5668 22.13C45.6452 23.9067 45.6668 24.4717 45.6668 29C45.6668 33.5284 45.6502 34.0934 45.5668 35.87C45.4835 37.645 45.2035 38.8534 44.7918 39.9167C44.3746 41.0297 43.7187 42.0377 42.8702 42.87C42.0368 43.7172 41.029 44.373 39.9168 44.7917C38.8552 45.2034 37.6452 45.4834 35.8702 45.5667C34.0935 45.645 33.5285 45.6667 29.0002 45.6667C24.4718 45.6667 23.9068 45.65 22.1302 45.5667C20.3552 45.4834 19.1468 45.2034 18.0835 44.7917C16.9707 44.3742 15.9627 43.7183 15.1302 42.87C14.2825 42.037 13.6267 41.0292 13.2085 39.9167C12.7952 38.855 12.5168 37.645 12.4335 35.87C12.3552 34.0934 12.3335 33.5284 12.3335 29C12.3335 24.4717 12.3502 23.9067 12.4335 22.13C12.5168 20.3534 12.7952 19.1467 13.2085 18.0834C13.6256 16.9703 14.2815 15.9622 15.1302 15.13C15.9629 14.2821 16.9709 13.6263 18.0835 13.2084C19.1468 12.795 20.3535 12.5167 22.1302 12.4334C23.9068 12.355 24.4718 12.3334 29.0002 12.3334ZM29.0002 20.6667C26.79 20.6667 24.6704 21.5447 23.1076 23.1075C21.5448 24.6703 20.6668 26.7899 20.6668 29C20.6668 31.2102 21.5448 33.3298 23.1076 34.8926C24.6704 36.4554 26.79 37.3334 29.0002 37.3334C31.2103 37.3334 33.3299 36.4554 34.8927 34.8926C36.4555 33.3298 37.3335 31.2102 37.3335 29C37.3335 26.7899 36.4555 24.6703 34.8927 23.1075C33.3299 21.5447 31.2103 20.6667 29.0002 20.6667ZM39.8335 20.25C39.8335 19.6975 39.614 19.1676 39.2233 18.7769C38.8326 18.3862 38.3027 18.1667 37.7502 18.1667C37.1976 18.1667 36.6677 18.3862 36.277 18.7769C35.8863 19.1676 35.6668 19.6975 35.6668 20.25C35.6668 20.8026 35.8863 21.3325 36.277 21.7232C36.6677 22.1139 37.1976 22.3334 37.7502 22.3334C38.3027 22.3334 38.8326 22.1139 39.2233 21.7232C39.614 21.3325 39.8335 20.8026 39.8335 20.25ZM29.0002 24C30.3262 24 31.598 24.5268 32.5357 25.4645C33.4734 26.4022 34.0002 27.674 34.0002 29C34.0002 30.3261 33.4734 31.5979 32.5357 32.5356C31.598 33.4733 30.3262 34 29.0002 34C27.6741 34 26.4023 33.4733 25.4646 32.5356C24.5269 31.5979 24.0002 30.3261 24.0002 29C24.0002 27.674 24.5269 26.4022 25.4646 25.4645C26.4023 24.5268 27.6741 24 29.0002 24Z" fill="#5D6887"/>
</svg>
