<svg width="57" height="45" viewBox="0 0 57 45" fill="none" xmlns="http://www.w3.org/2000/svg">
<g clip-path="url(#clip0_18_14)">
<path d="M28.0412 0.467773L56.0821 17.0028V27.993L28.0412 44.5323L0 27.993V17.0029L28.0412 0.467773Z" fill="#A5B4FC"/>
<path fill-rule="evenodd" clip-rule="evenodd" d="M0 17.0028L28.0411 0.467773L56.0821 17.0028V27.993L28.0411 44.5323L0 27.993V17.0028ZM28.0411 37.5161L50.1337 24.4854V20.5117L50.1326 20.5111L28.0411 33.5379L5.94948 20.5111L5.94841 20.5117V24.4854L28.0411 37.5161ZM28.0411 27.4624L44.9799 17.474L40.8535 15.0419L28.0411 22.5971L15.2287 15.0419L11.1023 17.474L28.0411 27.4624ZM28.0411 16.5216L35.7008 12.0049L28.0411 7.49019L20.3814 12.0049L28.0411 16.5216Z" fill="#4F46E5"/>
<path d="M28.0412 0.467773L0 17.0029V27.993L28.0411 44.5323L28.0412 0.467773Z" fill="#A5B4FC" fill-opacity="0.3"/>
</g>
<defs>
<clipPath id="clip0_18_14">
<rect width="56.0821" height="44.0645" fill="white" transform="translate(0 0.467773)"/>
</clipPath>
</defs>
</svg>
