<svg width="19" height="19" viewBox="0 0 19 19" fill="none" xmlns="http://www.w3.org/2000/svg">
<path fill-rule="evenodd" clip-rule="evenodd" d="M2.20833 8.45833C2.20833 5.01146 5.01146 2.20833 8.45833 2.20833C11.9052 2.20833 14.7083 5.01146 14.7083 8.45833C14.7083 11.9052 11.9052 14.7083 8.45833 14.7083C5.01146 14.7083 2.20833 11.9052 2.20833 8.45833ZM18.5698 17.0969L15.0333 13.5594C16.1302 12.149 16.7917 10.3812 16.7917 8.45833C16.7917 3.86354 13.0531 0.125 8.45833 0.125C3.86354 0.125 0.125 3.86354 0.125 8.45833C0.125 13.0531 3.86354 16.7917 8.45833 16.7917C10.3813 16.7917 12.149 16.1302 13.5594 15.0333L17.0969 18.5698C17.3 18.7729 17.5667 18.875 17.8333 18.875C18.1 18.875 18.3667 18.7729 18.5698 18.5698C18.9771 18.1625 18.9771 17.5042 18.5698 17.0969Z" fill="#A5B0CE"/>
</svg>
