<svg width="60" height="60" viewBox="0 0 60 60" fill="none" xmlns="http://www.w3.org/2000/svg">
<g clip-path="url(#clip0_18_47)">
<path d="M30 1C13.434 1 0 14.434 0 31C0 47.566 13.434 61 30 61C46.566 61 60 47.566 60 31C60 14.434 46.566 1 30 1ZM43.6977 24.3908C43.7109 24.6861 43.7173 24.9827 43.7173 25.2807C43.7173 34.3797 36.7914 44.8721 24.1255 44.8725H24.126H24.1255C20.2368 44.8725 16.6182 43.7327 13.5709 41.7794C14.1096 41.843 14.6581 41.8746 15.2133 41.8746C18.4396 41.8746 21.4087 40.7742 23.7657 38.9271C20.7513 38.8712 18.2098 36.8804 17.3328 34.1444C17.7525 34.2249 18.1842 34.2689 18.6269 34.2689C19.2554 34.2689 19.8642 34.1842 20.4428 34.0263C17.292 33.3955 14.9185 30.6109 14.9185 27.2766C14.9185 27.2454 14.9185 27.2175 14.9194 27.1887C15.8473 27.7046 16.9084 28.0149 18.0382 28.0497C16.1893 26.816 14.9739 24.7071 14.9739 22.3181C14.9739 21.0565 15.3149 19.8745 15.9064 18.8569C19.3021 23.0235 24.3768 25.7636 30.0998 26.0516C29.9817 25.5471 29.9208 25.0216 29.9208 24.4814C29.9208 20.6802 33.0048 17.5962 36.8074 17.5962C38.7881 17.5962 40.5771 18.4335 41.8336 19.772C43.4024 19.4625 44.8755 18.8894 46.2062 18.1007C45.6912 19.7079 44.5999 21.0565 43.1781 21.9093C44.5711 21.7426 45.8986 21.3732 47.1323 20.8248C46.2108 22.2059 45.0421 23.419 43.6977 24.3908Z" fill="#5D6887"/>
</g>
<defs>
<clipPath id="clip0_18_47">
<rect width="60" height="60" fill="white"/>
</clipPath>
</defs>
</svg>
